<svg width="602" height="323" viewBox="0 0 602 323" fill="none" xmlns="http://www.w3.org/2000/svg">
<path d="M372.701 190.197C373.95 182.543 380.512 176.878 388.273 176.78C421.952 176.332 507.7 175.561 512.302 179.208C518.036 183.762 521.029 186.092 520.581 193.308C520.171 199.938 512.936 314.499 512.936 314.499H352.459L372.701 190.197Z" fill="#455A64"/>
<path d="M494.654 314.558C494.644 314.558 494.634 314.441 494.605 314.217C494.586 313.963 494.556 313.641 494.517 313.222C494.449 312.315 494.361 311.038 494.235 309.4C494.108 307.742 493.981 305.714 493.903 303.345C493.815 300.985 493.669 298.294 493.669 295.32C493.65 293.828 493.63 292.278 493.62 290.649C493.611 289.021 493.659 287.334 493.679 285.589C493.689 282.088 493.884 278.354 494.049 274.424C494.488 266.565 495.239 257.945 496.438 248.946C497.686 239.946 499.266 231.433 500.943 223.74C501.831 219.908 502.65 216.261 503.566 212.878C504.015 211.191 504.414 209.543 504.863 207.983C505.312 206.423 505.75 204.921 506.16 203.497C506.959 200.631 507.817 198.076 508.529 195.824C509.231 193.561 509.894 191.641 510.46 190.08C511.016 188.54 511.445 187.331 511.747 186.473C511.893 186.083 512.01 185.771 512.098 185.537C512.176 185.332 512.225 185.225 512.235 185.225C512.244 185.225 512.215 185.342 512.147 185.556C512.069 185.8 511.971 186.112 511.844 186.502C511.562 187.36 511.162 188.579 510.645 190.139C510.109 191.709 509.465 193.639 508.793 195.911C508.11 198.174 507.271 200.728 506.491 203.595C506.092 205.028 505.663 206.52 505.224 208.09C504.785 209.65 504.395 211.298 503.956 212.985C503.049 216.359 502.26 220.015 501.382 223.837C499.734 231.521 498.174 240.024 496.926 249.004C495.727 257.994 494.966 266.604 494.498 274.444C494.322 278.363 494.118 282.098 494.079 285.589C494.049 287.334 493.991 289.021 493.991 290.64C494.001 292.258 494.001 293.818 494.01 295.3C493.991 298.274 494.118 300.956 494.176 303.315C494.225 305.675 494.322 307.703 494.42 309.371C494.498 311.009 494.556 312.286 494.605 313.193C494.615 313.612 494.635 313.934 494.644 314.188C494.664 314.441 494.664 314.558 494.654 314.558Z" fill="#263238"/>
<path d="M404.41 234.436C404.41 234.416 404.488 234.387 404.654 234.338C404.82 234.299 405.073 234.27 405.405 234.299C406.058 234.348 407.024 234.729 407.755 235.684C408.515 236.63 408.701 238.258 407.989 239.682C407.648 240.394 407.121 241.057 406.419 241.564C405.717 242.071 404.839 242.373 403.933 242.432C403.026 242.49 402.099 242.285 401.368 241.769C400.627 241.271 400.188 240.462 400.042 239.682C399.769 238.093 400.413 236.659 401.271 235.84C403.075 234.299 404.674 234.251 404.635 234.397C404.625 234.416 404.547 234.407 404.391 234.446C404.235 234.485 404.001 234.553 403.718 234.68C403.153 234.924 402.314 235.333 401.534 236.103C400.793 236.864 400.237 238.21 400.51 239.594C400.647 240.277 401.037 240.949 401.661 241.369C402.275 241.808 403.094 241.983 403.903 241.934C404.722 241.886 405.512 241.613 406.136 241.164C406.77 240.715 407.258 240.121 407.57 239.487C408.223 238.21 408.106 236.776 407.462 235.908C406.838 235.011 405.97 234.612 405.376 234.504C404.761 234.377 404.41 234.485 404.41 234.436Z" fill="#263238"/>
<path d="M429.576 219.878C429.566 219.976 427.918 219.673 425.266 219.927C422.643 220.161 418.977 221.107 415.652 223.427C412.327 225.758 410.192 228.878 409.08 231.267C407.939 233.675 407.666 235.333 407.569 235.304C407.539 235.294 407.588 234.884 407.744 234.143C407.91 233.412 408.222 232.359 408.758 231.111C409.811 228.634 411.956 225.397 415.369 223.008C418.782 220.619 422.565 219.703 425.247 219.566C426.592 219.488 427.694 219.556 428.435 219.654C429.176 219.751 429.586 219.849 429.576 219.878Z" fill="#263238"/>
<path d="M383.036 249.686C383.007 249.676 383.134 249.374 383.407 248.857C383.69 248.34 384.148 247.629 384.821 246.829C386.147 245.22 388.458 243.28 391.519 242.237C394.581 241.193 397.604 241.32 399.632 241.788C400.656 242.012 401.455 242.295 401.992 242.529C402.528 242.763 402.801 242.929 402.791 242.958C402.752 243.046 401.582 242.5 399.564 242.139C397.555 241.769 394.649 241.71 391.685 242.714C388.731 243.728 386.459 245.552 385.094 247.063C383.709 248.584 383.114 249.735 383.036 249.686Z" fill="#263238"/>
<path d="M414.084 253.674C414.045 253.723 413.382 253.313 412.436 252.484C411.49 251.656 410.291 250.359 409.247 248.74C408.204 247.112 407.531 245.493 407.17 244.284C406.81 243.075 406.712 242.295 406.771 242.285C406.927 242.236 407.609 245.288 409.676 248.467C411.705 251.656 414.201 253.547 414.084 253.674Z" fill="#263238"/>
<path d="M458.606 235.792C458.606 235.772 458.684 235.743 458.849 235.694C459.015 235.655 459.269 235.626 459.6 235.655C460.254 235.704 461.219 236.084 461.95 237.04C462.711 237.986 462.896 239.614 462.184 241.038C461.843 241.749 461.316 242.412 460.614 242.919C459.912 243.427 459.035 243.729 458.128 243.787C457.221 243.846 456.295 243.641 455.563 243.124C454.822 242.627 454.384 241.818 454.237 241.038C453.964 239.448 454.608 238.015 455.466 237.196C457.27 235.655 458.869 235.606 458.83 235.753C458.82 235.772 458.742 235.762 458.586 235.801C458.43 235.84 458.196 235.909 457.913 236.035C457.348 236.279 456.509 236.689 455.729 237.459C454.988 238.22 454.432 239.565 454.705 240.95C454.842 241.632 455.232 242.305 455.856 242.724C456.47 243.163 457.289 243.339 458.099 243.29C458.918 243.241 459.708 242.968 460.332 242.52C460.965 242.071 461.453 241.476 461.765 240.843C462.418 239.565 462.301 238.132 461.658 237.264C461.034 236.367 460.166 235.967 459.571 235.86C458.966 235.733 458.606 235.84 458.606 235.792Z" fill="#263238"/>
<path d="M483.771 221.234C483.762 221.331 482.114 221.029 479.461 221.283C476.838 221.517 473.172 222.462 469.847 224.783C466.522 227.114 464.387 230.234 463.275 232.623C462.134 235.031 461.861 236.689 461.764 236.659C461.735 236.65 461.783 236.24 461.939 235.499C462.105 234.768 462.417 233.715 462.953 232.467C464.007 229.99 466.152 226.753 469.564 224.364C472.977 221.975 476.761 221.058 479.442 220.922C480.788 220.844 481.889 220.912 482.63 221.01C483.371 221.107 483.781 221.205 483.771 221.234Z" fill="#263238"/>
<path d="M437.232 251.042C437.202 251.022 437.329 250.73 437.602 250.213C437.885 249.696 438.343 248.984 439.016 248.185C440.342 246.576 442.653 244.636 445.715 243.592C448.776 242.549 451.799 242.676 453.827 243.144C454.851 243.368 455.651 243.651 456.187 243.885C456.723 244.119 456.996 244.285 456.987 244.314C456.948 244.402 455.777 243.856 453.759 243.495C451.75 243.124 448.845 243.066 445.881 244.07C442.926 245.084 440.654 246.907 439.289 248.419C437.904 249.94 437.31 251.091 437.232 251.042Z" fill="#263238"/>
<path d="M468.287 255.03C468.248 255.079 467.585 254.669 466.639 253.84C465.693 253.011 464.494 251.715 463.45 250.096C462.407 248.468 461.734 246.849 461.374 245.64C461.013 244.431 460.915 243.651 460.974 243.641C461.13 243.592 461.812 246.644 463.88 249.823C465.898 253.011 468.394 254.913 468.287 255.03Z" fill="#263238"/>
<path d="M526.255 154.695C483.05 112.016 429.265 101.836 429.265 101.836C397.283 120.899 375.704 152.911 359.274 191.338C386.83 216.836 422.264 241.272 452.589 243.524C500.552 231.394 526.255 154.695 526.255 154.695Z" fill="#00476F"/>
<g opacity="0.4">
<path opacity="0.4" d="M526.255 154.695C483.05 112.016 429.265 101.836 429.265 101.836C397.283 120.899 375.704 152.911 359.274 191.338C386.83 216.836 422.264 241.272 452.589 243.524C500.552 231.394 526.255 154.695 526.255 154.695Z" fill="black"/>
</g>
<path d="M510.858 188.588C510.848 188.588 510.819 188.491 510.75 188.296C510.682 188.081 510.594 187.789 510.477 187.418C510.234 186.619 509.892 185.468 509.444 183.986C508.557 180.963 507.269 176.585 505.651 171.086L505.846 171.193C500.025 173.085 492.838 175.415 484.658 178.067L484.794 177.94C484.775 177.979 484.775 177.989 484.736 178.048C484.677 178.126 484.531 178.155 484.472 178.116C484.394 178.096 484.326 177.97 484.336 177.979C484.307 177.911 484.307 177.862 484.297 177.823L484.277 177.599L484.258 177.17L484.248 176.312C484.248 175.737 484.248 175.162 484.248 174.576C484.258 173.406 484.258 172.227 484.268 171.017C484.277 168.609 484.277 166.132 484.238 163.587C484.199 161.042 484.131 158.439 483.985 155.777C483.829 153.125 483.624 150.404 483.146 147.704L483.448 147.899C477.286 149.332 470.821 150.833 464.181 152.374C460.193 153.3 456.273 154.207 452.441 155.095L452.188 155.153L452.139 154.9C450.403 145.802 448.755 137.153 447.225 129.177L447.507 129.353C435.689 132.541 425.071 134.043 416.734 134.735L416.578 134.745L416.559 134.589C415.749 127.958 415.106 122.693 414.667 119.056C414.462 117.272 414.296 115.877 414.189 114.922C414.14 114.463 414.101 114.112 414.072 113.849C414.053 113.605 414.043 113.488 414.053 113.488C414.062 113.488 414.082 113.605 414.121 113.849C414.16 114.112 414.209 114.463 414.277 114.912C414.413 115.877 414.599 117.252 414.842 119.036C415.32 122.664 416.013 127.929 416.88 134.55L416.705 134.413C425.022 133.672 435.611 132.122 447.381 128.914L447.624 128.846L447.673 129.089C449.204 137.066 450.871 145.705 452.626 154.802L452.324 154.607C456.156 153.72 460.086 152.803 464.064 151.877C470.704 150.336 477.169 148.844 483.331 147.411L483.585 147.353L483.634 147.606C484.121 150.356 484.316 153.076 484.463 155.748C484.609 158.41 484.667 161.023 484.697 163.578C484.726 166.123 484.726 168.609 484.706 171.017C484.697 172.227 484.687 173.406 484.677 174.576C484.677 175.162 484.677 175.737 484.677 176.312L484.687 177.16L484.706 177.58L484.726 177.775L484.736 177.814C484.716 177.833 484.784 177.794 484.687 177.843C484.599 177.892 484.589 177.853 484.57 177.901C484.57 177.96 484.57 177.853 484.521 177.872C484.365 177.775 484.404 177.804 484.404 177.804L484.297 177.755L484.541 177.677C492.731 175.074 499.937 172.773 505.768 170.92L505.914 170.871L505.953 171.017C507.513 176.536 508.761 180.924 509.619 183.957C510.029 185.449 510.351 186.599 510.575 187.408C510.672 187.789 510.75 188.081 510.809 188.296C510.848 188.481 510.867 188.578 510.858 188.588Z" fill="#00476F"/>
<path d="M502.599 202.161C502.589 202.161 502.56 202.083 502.501 201.937C502.433 201.762 502.355 201.537 502.248 201.255C502.024 200.621 501.702 199.724 501.282 198.563C500.444 196.174 499.235 192.713 497.694 188.315L497.86 188.403C491.376 190.129 482.737 192.44 472.606 195.151L472.372 195.209L472.342 194.965C471.738 190.324 471.075 185.332 470.334 180.076C469.583 174.82 468.803 169.292 467.789 163.597L468.091 163.792C462.143 165.177 455.951 166.61 449.604 168.092C445.352 169.077 441.169 170.052 437.084 170.998L436.83 171.057L436.782 170.803C435.046 161.696 433.398 153.057 431.867 145.081L432.15 145.256C420.332 148.445 409.714 149.946 401.377 150.639L401.221 150.648L401.201 150.492C400.392 143.862 399.748 138.597 399.31 134.96C399.105 133.175 398.939 131.781 398.832 130.825C398.783 130.367 398.744 130.016 398.715 129.762C398.695 129.519 398.685 129.402 398.695 129.402C398.705 129.402 398.724 129.519 398.763 129.762C398.802 130.026 398.851 130.377 398.919 130.825C399.046 131.781 399.241 133.165 399.485 134.95C399.963 138.577 400.655 143.842 401.523 150.463L401.347 150.327C409.665 149.586 420.254 148.035 432.023 144.827L432.257 144.759L432.306 145.003C433.837 152.979 435.504 161.618 437.259 170.715L436.957 170.52C441.043 169.575 445.226 168.599 449.477 167.615C455.825 166.142 462.016 164.709 467.964 163.324L468.218 163.266L468.267 163.519C469.281 169.224 470.051 174.762 470.792 180.018C471.523 185.283 472.177 190.266 472.762 194.917L472.498 194.741C482.649 192.089 491.307 189.837 497.792 188.14L497.918 188.111L497.957 188.228C499.449 192.645 500.619 196.126 501.419 198.515C501.809 199.685 502.101 200.592 502.316 201.225C502.414 201.518 502.482 201.752 502.54 201.927C502.579 202.083 502.599 202.161 502.599 202.161Z" fill="#FAFAFA"/>
<path d="M485.692 223.184C485.692 223.184 485.692 222.911 485.731 222.375C485.78 221.819 485.839 221.039 485.926 220.025C486.112 217.938 486.375 214.906 486.716 211.034L486.882 211.161C480.456 213.297 471.466 216.28 460.691 219.859L460.467 219.937L460.418 219.703C458.351 208.977 455.904 196.301 453.261 182.562L453.564 182.757C448.406 183.957 443.033 185.205 437.543 186.482C432.434 187.662 427.422 188.832 422.556 189.953L422.303 190.012L422.254 189.758C420.519 180.651 418.871 172.002 417.35 164.036L417.632 164.212C405.805 167.4 395.196 168.902 386.859 169.594L386.703 169.604L386.684 169.448C385.874 162.807 385.231 157.542 384.792 153.905C384.587 152.121 384.421 150.736 384.314 149.771C384.265 149.322 384.226 148.961 384.197 148.708C384.178 148.464 384.168 148.347 384.178 148.347C384.187 148.347 384.207 148.464 384.246 148.708C384.285 148.961 384.334 149.312 384.402 149.771C384.529 150.726 384.724 152.111 384.967 153.895C385.445 157.523 386.138 162.788 387.005 169.418L386.83 169.282C395.137 168.541 405.717 166.991 417.506 163.783L417.74 163.714L417.788 163.958C419.319 171.924 420.987 180.564 422.742 189.671L422.439 189.476C427.305 188.345 432.317 187.184 437.426 185.995C442.916 184.727 448.289 183.479 453.447 182.28L453.7 182.221L453.749 182.475C456.362 196.213 458.78 208.899 460.828 219.625L460.565 219.469C471.359 215.949 480.368 213.024 486.804 210.927L486.989 210.869L486.97 211.054C486.58 214.925 486.268 217.948 486.063 220.034C485.956 221.048 485.868 221.829 485.809 222.384C485.741 222.911 485.692 223.184 485.692 223.184Z" fill="#00476F"/>
<path d="M450.823 243.358C450.813 243.358 450.794 243.299 450.755 243.173C450.716 243.026 450.667 242.851 450.599 242.617C450.462 242.1 450.277 241.379 450.043 240.452C449.565 238.531 448.883 235.752 448.025 232.242C447.186 228.703 446.172 224.412 445.002 219.527C443.881 214.623 442.574 209.104 441.414 203.048L441.687 203.224C432.433 205.379 421.873 207.836 410.689 210.449L410.436 210.508L410.387 210.245C410.221 209.396 410.046 208.48 409.87 207.563C408.33 199.519 406.847 191.767 405.463 184.522L405.765 184.707C394.123 187.857 383.475 189.388 374.992 190.09L374.826 190.1L374.807 189.934C374.017 183.401 373.373 178.135 372.925 174.469C372.72 172.675 372.554 171.271 372.437 170.286C372.388 169.828 372.349 169.467 372.32 169.204C372.301 168.96 372.291 168.833 372.301 168.833C372.31 168.833 372.33 168.96 372.369 169.194C372.408 169.457 372.466 169.818 372.535 170.276C372.671 171.251 372.866 172.656 373.11 174.45C373.588 178.106 374.29 183.372 375.148 189.895L374.963 189.739C383.416 188.978 394.035 187.399 405.638 184.239L405.892 184.171L405.941 184.425C407.335 191.669 408.827 199.421 410.367 207.466C410.543 208.382 410.719 209.299 410.884 210.147L410.582 209.952C421.776 207.368 432.336 204.921 441.599 202.785L441.833 202.736L441.872 202.97C443.013 209.016 444.29 214.535 445.382 219.449C446.504 224.354 447.488 228.644 448.298 232.193C449.107 235.713 449.751 238.492 450.199 240.423C450.404 241.359 450.57 242.081 450.687 242.607C450.735 242.841 450.774 243.026 450.804 243.173C450.823 243.29 450.833 243.358 450.823 243.358Z" fill="#FAFAFA"/>
<path d="M434.354 239.877C434.325 239.887 434.198 239.409 433.993 238.522C433.779 237.557 433.496 236.299 433.164 234.768C432.472 231.57 431.546 227.104 430.522 222.043L430.824 222.238C429.888 222.453 428.903 222.687 427.909 222.921C422.195 224.247 417.017 225.417 413.273 226.246C411.459 226.636 409.958 226.958 408.827 227.192C407.774 227.406 407.189 227.504 407.179 227.474C407.169 227.445 407.744 227.27 408.778 226.997C409.899 226.714 411.391 226.343 413.195 225.885C416.93 224.968 422.088 223.74 427.802 222.423C428.796 222.189 429.781 221.965 430.717 221.751L430.971 221.692L431.019 221.946C432.024 227.006 432.891 231.472 433.496 234.69C433.779 236.23 434.003 237.508 434.179 238.483C434.315 239.37 434.383 239.867 434.354 239.877Z" fill="#00476F"/>
<path d="M398.394 222.102C398.355 222.111 398.228 221.614 398.033 220.727C397.819 219.742 397.546 218.465 397.224 216.934C396.561 213.726 395.683 209.299 394.747 204.394C394.689 204.092 394.63 203.8 394.581 203.517L394.893 203.712C390.262 204.97 386.049 205.867 382.997 206.413C381.467 206.686 380.238 206.891 379.38 207.008C378.522 207.125 378.054 207.173 378.044 207.144C378.034 207.105 378.502 206.998 379.351 206.822C380.287 206.627 381.486 206.374 382.939 206.071C385.971 205.428 390.154 204.482 394.776 203.224L395.04 203.156L395.088 203.429C395.137 203.702 395.196 204.004 395.254 204.307C396.19 209.211 397.019 213.658 397.585 216.875C397.848 218.416 398.062 219.703 398.238 220.698C398.365 221.595 398.433 222.102 398.394 222.102Z" fill="#00476F"/>
<path d="M362.209 194.01C362.073 194.03 361.78 192.655 361.566 190.948C361.351 189.242 361.283 187.848 361.429 187.828C361.566 187.809 361.858 189.183 362.073 190.89C362.287 192.596 362.356 193.991 362.209 194.01Z" fill="#00476F"/>
<path d="M518.142 174.333C518.132 174.333 518.113 174.255 518.083 174.099C518.044 173.914 518.005 173.689 517.947 173.387C517.83 172.734 517.654 171.807 517.44 170.608C517.001 168.151 516.377 164.582 515.577 160.077L515.743 160.194C511.648 160.848 506.655 161.647 501.01 162.554L500.815 162.583L500.786 162.388C499.303 153.535 497.529 142.877 495.569 131.166L495.861 131.361C489.523 132.834 482.737 134.413 475.746 136.042C472.274 136.851 468.852 137.641 465.498 138.421L465.254 138.479L465.195 138.236C463.021 129.382 460.993 120.996 459.472 113.254L459.735 113.44C447.732 115.283 437.464 116.862 429.81 118.042L429.664 118.061L429.644 117.915C429.069 113.118 428.611 109.325 428.289 106.702C428.143 105.425 428.026 104.43 427.948 103.728C427.918 103.406 427.889 103.153 427.87 102.958C427.85 102.782 427.85 102.694 427.86 102.694C427.87 102.694 427.889 102.782 427.909 102.948C427.938 103.143 427.977 103.387 428.026 103.708C428.123 104.41 428.26 105.395 428.445 106.673C428.796 109.296 429.293 113.089 429.937 117.876L429.771 117.749C437.425 116.531 447.673 114.902 459.667 112.991L459.881 112.952L459.92 113.167C461.461 120.87 463.499 129.265 465.683 138.109L465.381 137.924C468.725 137.144 472.148 136.354 475.629 135.544C482.62 133.926 489.406 132.356 495.744 130.884L495.998 130.825L496.037 131.079C497.958 142.789 499.703 153.466 501.156 162.33L500.932 162.164C506.587 161.296 511.589 160.536 515.685 159.902L515.821 159.882L515.841 160.019C516.582 164.533 517.167 168.102 517.566 170.569C517.752 171.768 517.898 172.704 518.005 173.358C518.044 173.66 518.083 173.894 518.113 174.079C518.142 174.245 518.152 174.333 518.142 174.333Z" fill="#FAFAFA"/>
<path d="M521.439 153.974C521.439 153.983 521.351 154.013 521.166 154.071C520.961 154.139 520.688 154.217 520.356 154.315C519.654 154.549 518.582 154.783 517.265 155.27C514.594 156.138 510.81 157.659 506.423 160.087C502.025 162.506 497.111 165.967 492.206 170.433C487.301 174.899 482.465 180.418 478.087 186.697C473.738 193.006 470.189 199.412 467.264 205.37C464.339 211.337 461.989 216.846 460.077 221.497C458.166 226.148 456.684 229.941 455.641 232.555C455.124 233.832 454.724 234.846 454.442 235.558C454.305 235.88 454.198 236.133 454.12 236.338C454.042 236.513 454.003 236.601 453.993 236.601C453.983 236.601 454.013 236.504 454.071 236.328C454.139 236.123 454.237 235.86 454.344 235.529C454.607 234.797 454.988 233.783 455.456 232.486C456.44 229.854 457.874 226.041 459.736 221.371C461.608 216.7 463.929 211.171 466.835 205.175C469.74 199.188 473.29 192.752 477.658 186.414C482.065 180.106 486.931 174.567 491.884 170.101C496.838 165.626 501.801 162.184 506.247 159.795C510.684 157.396 514.506 155.914 517.207 155.095C518.543 154.637 519.615 154.432 520.327 154.227C520.668 154.149 520.932 154.081 521.146 154.032C521.341 153.983 521.429 153.964 521.439 153.974Z" fill="#263238"/>
<path d="M46.4439 288.007C45.9856 288.007 45.5663 287.695 45.4395 287.237L10.7758 155.115C10.6295 154.559 10.961 153.993 11.5168 153.847C12.0726 153.701 12.6381 154.032 12.7844 154.588L47.4482 286.71C47.5944 287.266 47.2629 287.832 46.7071 287.978C46.6194 287.997 46.5316 288.007 46.4439 288.007Z" fill="#263238"/>
<path d="M37.2876 291.273C36.8293 291.273 36.41 290.961 36.2833 290.503L1.60974 158.371C1.46348 157.815 1.79501 157.25 2.3508 157.103C2.90659 156.957 3.47213 157.289 3.61839 157.844L38.2822 289.967C38.4284 290.522 38.0969 291.088 37.5411 291.234C37.4631 291.263 37.3754 291.273 37.2876 291.273Z" fill="#263238"/>
<path d="M5.77089 152.637L4.10352 151.399L93.1178 31.6018L174.322 47.1639L173.922 49.2018L94.0051 33.8932L5.77089 152.637Z" fill="#263238"/>
<path d="M99.3598 35.3868L11.792 153.65L13.4612 154.886L101.029 36.6228L99.3598 35.3868Z" fill="#263238"/>
<path d="M90.9069 37.1113C91.9502 40.1925 95.2947 41.8404 98.376 40.7873C101.457 39.744 103.105 36.3995 102.052 33.3183C101.009 30.2371 97.6641 28.5892 94.5829 29.6423C91.5017 30.6856 89.8538 34.0301 90.9069 37.1113Z" fill="#F26522"/>
<path d="M170.481 40.4656L169.028 32.002L175.288 31.5339L175.747 39.705L170.481 40.4656Z" fill="#F26522"/>
<g opacity="0.3">
<g opacity="0.3">
<path opacity="0.3" d="M170.481 40.4656L169.028 32.002L175.288 31.5339L175.747 39.705L170.481 40.4656Z" fill="black"/>
</g>
</g>
<path d="M165.352 39.8805L159.56 71.2778L144.934 112.767L227.366 100.881L194.097 64.6668L180.212 37.7354L165.352 39.8805Z" fill="#F26522"/>
<path d="M0 156.148C0 159.756 2.92521 162.691 6.54273 162.691C10.1602 162.691 13.0855 159.765 13.0855 156.148C13.0855 152.54 10.1602 149.605 6.54273 149.605C2.92521 149.605 0 152.54 0 156.148Z" fill="#F26522"/>
<path d="M20.3407 314.441C20.3212 314.002 20.2725 313.573 20.2725 313.134C20.2725 298.684 31.9831 286.973 46.4336 286.973C60.8842 286.973 72.5948 298.684 72.5948 313.134C72.5948 313.573 72.546 314.002 72.5265 314.441H20.3407Z" fill="#F26522"/>
<path d="M163.051 304.642C162.729 304.71 161.364 306.104 163.324 308.318C165.283 310.531 177.092 316.586 179.276 312.969C181.46 309.351 176.194 306.836 176.194 306.836L163.051 304.642Z" fill="#FFBE9D"/>
<path d="M176.029 300.742C176.029 300.742 188.217 299.396 193.19 300.03C198.592 300.722 204.306 297.992 207.699 294.277C211.092 290.552 211.98 285.657 211.98 285.657L219.732 280.226C219.732 280.226 220.57 261.788 208.275 264.771L193.912 265.278C193.912 265.278 165.654 269.959 161.276 273.479C161.276 273.479 155.952 278.647 154.402 280.655C153.817 281.406 153.31 289.012 158.712 291.595C158.712 291.595 155.533 295.671 158.331 297.963L159.648 298.967C159.648 298.967 157.824 303.023 159.54 304.193C161.257 305.354 174.82 309.468 178.671 306.787C182.533 304.106 178.067 301.015 176.029 300.742Z" fill="#FFBE9D"/>
<path d="M160.838 290.883C160.848 290.844 161.413 290.922 162.437 291.059C163.461 291.195 164.943 291.371 166.776 291.507C167.693 291.575 168.697 291.624 169.78 291.653C170.862 291.683 172.022 291.644 173.261 291.731C174.489 291.839 175.835 292.073 176.995 292.911C178.087 293.721 179.033 295.095 178.818 296.665C178.711 297.436 178.272 298.108 177.726 298.596C177.171 299.074 176.527 299.395 175.883 299.62C174.577 300.068 173.29 300.195 172.061 300.322C169.604 300.527 167.391 300.39 165.548 300.195C163.705 300 162.232 299.756 161.209 299.581C160.195 299.405 159.629 299.288 159.639 299.249C159.649 299.21 160.214 299.269 161.238 299.386C162.262 299.493 163.744 299.688 165.577 299.834C167.41 299.98 169.604 300.078 172.012 299.854C173.212 299.717 174.489 299.571 175.708 299.142C176.313 298.927 176.898 298.625 177.385 298.206C177.853 297.787 178.224 297.211 178.311 296.577C178.497 295.29 177.687 294.033 176.693 293.292C175.679 292.541 174.401 292.287 173.222 292.17C172.022 292.063 170.862 292.092 169.77 292.043C168.678 292.004 167.664 291.926 166.747 291.839C164.904 291.663 163.422 291.419 162.408 291.234C161.384 291.059 160.828 290.922 160.838 290.883Z" fill="#EB996E"/>
<path d="M159.843 282.078C159.853 282.039 160.418 282.117 161.432 282.254C162.446 282.39 163.928 282.585 165.752 282.741C167.575 282.897 169.759 283.024 172.187 283.024C173.387 283.043 174.742 282.956 176.039 283.599C176.673 283.921 177.228 284.477 177.501 285.169C177.784 285.852 177.833 286.622 177.706 287.353C177.433 288.845 176.39 290.015 175.239 290.737C174.079 291.478 172.772 291.819 171.544 291.946C169.067 292.16 166.883 291.78 165.059 291.644C163.295 291.468 161.832 291.312 160.73 291.205C159.706 291.088 159.141 291.01 159.151 290.971C159.151 290.932 159.726 290.951 160.75 291C161.861 291.068 163.324 291.166 165.098 291.283C166.932 291.371 169.125 291.712 171.505 291.478C172.684 291.351 173.913 291.01 174.986 290.318C176.049 289.645 176.985 288.572 177.219 287.266C177.482 285.969 176.965 284.574 175.824 284.048C174.713 283.482 173.406 283.521 172.207 283.502C169.769 283.472 167.575 283.316 165.742 283.112C163.909 282.907 162.437 282.653 161.422 282.458C160.389 282.254 159.843 282.107 159.843 282.078Z" fill="#EB996E"/>
<path d="M166.133 283.151C165.987 283.18 165.645 282.117 165.021 280.898C164.407 279.68 163.744 278.773 163.851 278.685C163.949 278.588 164.826 279.387 165.47 280.674C166.143 281.952 166.27 283.131 166.133 283.151Z" fill="#EB996E"/>
<path d="M203.42 265.512L191.894 263.981C191.894 263.981 159.327 257.341 159.005 258.199C158.683 259.057 157.084 259.359 158.284 262.85C159.493 266.341 178.282 269.441 179.121 270.553C179.959 271.665 180.554 278.129 187.935 281.103C195.317 284.067 199.89 283.073 199.89 283.073" fill="#FFBE9D"/>
<path d="M199.89 283.063C199.89 283.073 199.812 283.102 199.646 283.131C199.48 283.16 199.227 283.2 198.895 283.239C198.232 283.307 197.257 283.336 195.999 283.239C194.742 283.141 193.211 282.907 191.485 282.439C189.769 281.951 187.799 281.357 185.82 280.235C183.84 279.133 181.997 277.3 180.739 274.931C180.096 273.761 179.657 272.425 179.17 271.138C179.111 270.972 179.033 270.836 178.955 270.709C178.897 270.621 178.77 270.572 178.614 270.494C178.302 270.358 177.961 270.251 177.629 270.143C176.946 269.939 176.235 269.744 175.523 269.558C172.656 268.817 169.624 268.096 166.523 267.179C164.973 266.721 163.403 266.224 161.843 265.59C161.063 265.268 160.292 264.917 159.551 264.459C159.181 264.234 158.83 263.961 158.498 263.63C158.352 263.445 158.196 263.269 158.098 263.035C157.991 262.811 157.952 262.616 157.884 262.401C157.65 261.572 157.455 260.656 157.728 259.749C157.855 259.291 158.157 258.901 158.43 258.589C158.566 258.433 158.693 258.286 158.752 258.14C158.781 258.101 158.732 258.16 158.83 258.013C158.947 257.896 158.976 257.916 159.025 257.896C159.122 257.867 159.161 257.877 159.239 257.867C159.356 257.857 159.473 257.857 159.58 257.867C161.287 257.974 162.886 258.267 164.495 258.511C167.683 259.037 170.745 259.603 173.66 260.159C179.491 261.27 184.728 262.323 189.115 263.22C190.217 263.435 191.261 263.688 192.245 263.854C193.24 263.991 194.186 264.127 195.073 264.254C196.828 264.507 198.34 264.722 199.597 264.897C200.806 265.083 201.762 265.219 202.454 265.326C202.757 265.375 203 265.414 203.195 265.453C203.361 265.482 203.449 265.502 203.449 265.512C203.449 265.521 203.361 265.521 203.195 265.502C203 265.482 202.747 265.453 202.445 265.424C201.752 265.346 200.787 265.229 199.578 265.092C198.32 264.936 196.799 264.751 195.044 264.537C194.156 264.429 193.211 264.303 192.216 264.176C191.212 264.02 190.168 263.786 189.067 263.581C184.65 262.733 179.413 261.738 173.592 260.627C170.677 260.09 167.615 259.535 164.436 259.008C162.847 258.764 161.219 258.472 159.59 258.374C159.493 258.374 159.395 258.374 159.298 258.374C159.268 258.384 159.2 258.384 159.2 258.384C159.19 258.364 159.21 258.423 159.171 258.345C159.112 258.257 159.161 258.267 159.122 258.228C159.112 258.218 159.093 258.208 159.083 258.199C159.473 258.345 159.181 258.247 159.268 258.286L159.249 258.335C159.142 258.579 158.986 258.754 158.849 258.91C158.576 259.223 158.352 259.525 158.245 259.886C158.03 260.617 158.176 261.455 158.41 262.245C158.537 262.674 158.635 262.996 158.917 263.279C159.19 263.552 159.512 263.805 159.863 264.02C160.556 264.449 161.316 264.8 162.077 265.112C163.607 265.736 165.168 266.233 166.708 266.692C169.789 267.608 172.822 268.33 175.689 269.09C176.41 269.285 177.112 269.47 177.814 269.695C178.165 269.802 178.507 269.919 178.848 270.065C179.004 270.143 179.228 270.231 179.374 270.436C179.491 270.611 179.569 270.787 179.628 270.953C180.125 272.298 180.535 273.566 181.159 274.716C182.358 277.027 184.123 278.812 186.044 279.904C187.955 281.015 189.905 281.639 191.602 282.137C193.308 282.624 194.82 282.887 196.058 283.014C197.296 283.141 198.271 283.141 198.925 283.112C199.256 283.102 199.5 283.073 199.675 283.063C199.802 283.063 199.89 283.053 199.89 283.063Z" fill="#EB996E"/>
<path d="M172.479 300.166C172.479 300.137 172.908 300.117 173.679 300.225C174.449 300.332 175.551 300.576 176.828 301.161C177.462 301.463 178.135 301.814 178.798 302.331C179.432 302.838 180.134 303.559 180.241 304.593C180.358 305.626 179.685 306.631 178.798 307.167C177.881 307.742 176.76 307.84 175.707 307.811C171.495 307.557 167.731 306.933 165.059 306.241C163.723 305.9 162.66 305.548 161.939 305.285C161.217 305.022 160.827 304.837 160.837 304.807C160.847 304.768 161.256 304.885 161.997 305.1C162.738 305.314 163.801 305.597 165.137 305.9C167.799 306.494 171.563 307.06 175.717 307.313C176.731 307.352 177.755 307.245 178.525 306.758C179.305 306.29 179.851 305.461 179.763 304.642C179.695 303.823 179.11 303.15 178.525 302.662C177.92 302.165 177.267 301.804 176.662 301.492C174.215 300.283 172.45 300.273 172.479 300.166Z" fill="#EB996E"/>
<path d="M257.261 233.598C257.261 233.598 271.702 209.826 274.949 194.137C278.196 178.448 294.967 153.564 300.379 147.07C305.791 140.576 327.427 133 327.427 133L335.404 128.7L397.213 123.269C397.213 123.269 438.332 127.598 450.774 138.957C463.216 150.317 472.957 176.293 472.957 189.271C472.957 202.259 485.525 314.704 485.525 314.704L333.21 314.499L336.622 259.057C336.622 259.057 318.223 246.615 313.357 235.792C308.492 224.968 311.192 230.38 311.192 230.38C311.192 230.38 293.924 267.092 287.976 271.421C282.028 275.75 212.847 296.977 212.847 296.977L203.369 260.676L257.261 233.598Z" fill="#F26522"/>
<path d="M437.094 143.482C435.426 143.998 414.794 197.286 413.341 202.132C411.888 206.978 413.341 237.518 413.341 237.518L420.127 250.125C420.127 250.125 418.187 259.34 419.64 263.698L389.101 269.519C389.101 269.519 381.349 264.186 374.075 269.519L338.046 272.562C338.046 272.562 348.625 272.679 345.476 288.904C342.395 304.797 340.045 308.288 340.045 308.288L466.658 305.402C466.658 305.402 480.718 304.71 478.583 277.651C476.438 250.603 470.402 175.991 470.402 175.991C470.402 175.991 461.168 136.013 437.094 143.482Z" fill="#F26522"/>
<path d="M413.059 233.266C413.04 233.276 412.942 233.042 412.757 232.613C412.562 232.126 412.308 231.492 411.986 230.692C411.655 229.863 411.255 228.83 410.865 227.621C410.465 226.412 409.958 225.047 409.549 223.496C409.1 221.956 408.613 220.269 408.203 218.416C407.735 216.583 407.365 214.604 406.965 212.517C406.253 208.334 405.687 203.683 405.483 198.778C405.307 193.874 405.502 189.193 405.902 184.961C406.156 182.855 406.36 180.837 406.702 178.984C406.858 178.058 406.984 177.151 407.16 176.293C407.345 175.435 407.511 174.616 407.677 173.826C407.979 172.246 408.388 170.852 408.7 169.614C409.003 168.375 409.324 167.322 409.607 166.474C409.871 165.655 410.085 165.002 410.241 164.504C410.397 164.056 410.475 163.822 410.495 163.832C410.514 163.841 410.456 164.075 410.339 164.534C410.202 165.041 410.017 165.694 409.793 166.523C409.539 167.381 409.247 168.434 408.964 169.682C408.671 170.92 408.291 172.315 408.018 173.894C407.862 174.684 407.696 175.503 407.53 176.361C407.365 177.219 407.248 178.126 407.101 179.052C406.78 180.905 406.594 182.914 406.36 185.01C405.99 189.222 405.814 193.874 405.98 198.759C406.185 203.634 406.731 208.266 407.413 212.439C407.794 214.516 408.145 216.495 408.603 218.328C408.993 220.171 409.461 221.858 409.89 223.399C410.28 224.949 410.768 226.314 411.138 227.533C411.499 228.752 411.869 229.785 412.172 230.624C412.454 231.433 412.679 232.077 412.854 232.574C413.001 233.013 413.069 233.257 413.059 233.266Z" fill="#263238"/>
<path d="M457.113 291.049C457.103 291.059 456.986 290.932 456.791 290.678C456.567 290.376 456.284 290.005 455.943 289.557C455.582 289.06 455.143 288.465 454.588 287.802C454.042 287.129 453.447 286.349 452.715 285.54C452.004 284.721 451.224 283.824 450.317 282.917C449.449 281.971 448.445 281.045 447.411 280.06C445.285 278.129 442.838 276.12 440.127 274.219C437.387 272.347 434.647 270.767 432.093 269.461C430.796 268.837 429.577 268.222 428.387 267.745C427.217 267.218 426.106 266.809 425.082 266.428C424.068 266.028 423.122 265.746 422.303 265.473C421.484 265.19 420.772 264.985 420.187 264.829C419.651 264.673 419.202 264.537 418.842 264.429C418.539 264.332 418.373 264.273 418.383 264.254C418.383 264.234 418.559 264.264 418.871 264.322C419.241 264.4 419.7 264.507 420.246 264.624C420.84 264.751 421.572 264.936 422.401 265.19C423.229 265.443 424.185 265.697 425.209 266.077C426.242 266.438 427.373 266.838 428.553 267.345C429.753 267.813 430.991 268.408 432.298 269.022C434.881 270.319 437.66 271.898 440.41 273.78C443.15 275.691 445.607 277.729 447.723 279.689C448.757 280.703 449.761 281.639 450.619 282.605C451.516 283.531 452.286 284.448 452.989 285.286C453.71 286.105 454.285 286.914 454.812 287.607C455.348 288.289 455.767 288.904 456.099 289.42C456.411 289.888 456.665 290.278 456.869 290.6C457.045 290.893 457.123 291.039 457.113 291.049Z" fill="#263238"/>
<path d="M467.77 283.941C467.692 284.009 466.571 282.732 464.464 281.016C463.411 280.148 462.085 279.221 460.554 278.285C459.004 277.379 457.239 276.491 455.299 275.75C453.358 275.029 451.447 274.522 449.682 274.171C447.917 273.849 446.299 273.664 444.943 273.615C442.223 273.498 440.536 273.712 440.526 273.615C440.526 273.576 440.936 273.508 441.706 273.42C442.086 273.361 442.554 273.313 443.101 273.303C443.647 273.283 444.271 273.235 444.953 273.264C446.328 273.264 447.966 273.41 449.77 273.712C451.564 274.044 453.505 274.541 455.484 275.282C457.444 276.043 459.238 276.959 460.798 277.895C462.339 278.861 463.665 279.836 464.698 280.752C465.235 281.181 465.664 281.64 466.063 282.01C466.463 282.381 466.775 282.732 467.029 283.024C467.526 283.59 467.799 283.921 467.77 283.941Z" fill="#263238"/>
<path d="M456.069 266.126C456.001 266.214 454.509 265.034 451.779 263.679C451.096 263.347 450.345 262.986 449.507 262.684C448.688 262.333 447.761 262.07 446.806 261.768C444.875 261.241 442.701 260.812 440.39 260.637C438.079 260.49 435.865 260.617 433.876 260.88C432.892 261.056 431.946 261.183 431.078 261.426C430.2 261.612 429.411 261.865 428.689 262.099C425.803 263.064 424.165 264.04 424.106 263.932C424.087 263.903 424.496 263.659 425.247 263.24C425.617 263.025 426.086 262.772 426.651 262.538C427.217 262.294 427.841 261.982 428.572 261.758C429.293 261.495 430.093 261.222 430.98 261.017C431.848 260.754 432.804 260.607 433.808 260.422C435.826 260.129 438.069 259.993 440.429 260.139C442.779 260.315 444.982 260.763 446.942 261.319C447.908 261.641 448.834 261.924 449.663 262.294C450.511 262.616 451.262 263.006 451.944 263.357C452.637 263.688 453.222 264.079 453.739 264.4C454.265 264.712 454.694 265.015 455.035 265.288C455.718 265.795 456.088 266.097 456.069 266.126Z" fill="#263238"/>
<path d="M382.013 306.084C381.896 306.055 382.647 304.047 382.91 300.663C383.076 298.976 383.037 296.948 382.861 294.705C382.656 292.472 382.227 290.035 381.584 287.519C380.921 285.013 380.053 282.693 379.156 280.635C378.181 278.617 377.245 276.813 376.26 275.428C374.359 272.61 372.74 271.216 372.828 271.128C372.847 271.099 373.247 271.45 373.939 272.113C374.3 272.425 374.69 272.874 375.129 273.39C375.353 273.654 375.587 273.927 375.841 274.219C376.075 274.521 376.309 274.863 376.562 275.214C377.596 276.589 378.581 278.392 379.595 280.43C380.521 282.507 381.408 284.847 382.091 287.383C382.734 289.928 383.154 292.394 383.339 294.657C383.485 296.919 383.495 298.976 383.28 300.683C383.232 301.102 383.193 301.511 383.144 301.901C383.066 302.282 382.998 302.633 382.929 302.974C382.793 303.647 382.686 304.222 382.52 304.671C382.218 305.597 382.042 306.104 382.013 306.084Z" fill="#263238"/>
<path d="M360.785 269.49C360.776 269.49 360.756 269.393 360.727 269.207C360.688 268.993 360.649 268.72 360.59 268.378C360.483 267.608 360.327 266.536 360.132 265.17C359.742 262.382 359.216 258.335 358.621 253.343C357.421 243.348 355.988 229.502 354.867 214.174C353.755 198.846 353.16 184.932 352.897 174.869C352.761 169.838 352.692 165.762 352.683 162.944C352.683 161.559 352.673 160.477 352.673 159.697C352.673 159.346 352.683 159.073 352.683 158.858C352.692 158.673 352.692 158.576 352.702 158.576C352.712 158.576 352.722 158.673 352.731 158.858C352.741 159.073 352.751 159.356 352.77 159.697C352.8 160.477 352.829 161.559 352.878 162.934C352.965 165.781 353.092 169.848 353.258 174.85C353.609 184.912 354.262 198.807 355.374 214.135C356.495 229.454 357.87 243.3 358.982 253.304C359.547 258.277 360.015 262.314 360.337 265.151C360.493 266.526 360.62 267.598 360.707 268.369C360.737 268.71 360.766 268.993 360.785 269.207C360.795 269.393 360.795 269.49 360.785 269.49Z" fill="#263238"/>
<path d="M311.046 231.082C311.017 231.092 310.783 230.565 310.383 229.59C309.993 228.615 309.408 227.221 308.677 225.495C307.214 222.053 305.03 217.363 302.417 212.273C299.804 207.232 297.434 202.668 295.669 199.265C294.821 197.598 294.148 196.233 293.7 195.287C293.251 194.341 293.017 193.805 293.046 193.795C293.076 193.776 293.368 194.283 293.875 195.199C294.411 196.194 295.133 197.51 295.991 199.1C297.766 202.405 300.252 206.939 302.865 212.039C305.479 217.138 307.614 221.868 308.999 225.349C309.691 227.094 310.227 228.517 310.559 229.512C310.91 230.516 311.075 231.072 311.046 231.082Z" fill="#263238"/>
<path d="M303.265 213.063C303.255 213.092 302.943 213.033 302.378 212.897C301.822 212.76 301.013 212.526 300.037 212.205C298.078 211.571 295.406 210.537 292.588 209.143C289.76 207.739 287.332 206.247 285.636 205.067C284.787 204.482 284.115 203.985 283.666 203.624C283.218 203.263 282.974 203.049 282.993 203.029C283.042 202.971 284.095 203.683 285.831 204.775C287.566 205.867 290.014 207.3 292.812 208.694C295.611 210.079 298.243 211.152 300.155 211.873C302.075 212.585 303.284 212.994 303.265 213.063Z" fill="#263238"/>
<path d="M290.19 246.371C290.171 246.4 289.8 246.166 289.147 245.737C288.494 245.299 287.538 244.675 286.349 243.953C283.96 242.49 280.518 240.667 276.52 239.165C272.512 237.674 268.729 236.786 265.96 236.318C264.575 236.084 263.454 235.918 262.674 235.821C261.894 235.723 261.465 235.645 261.465 235.616C261.465 235.577 261.904 235.587 262.693 235.626C263.483 235.655 264.624 235.772 266.018 235.957C268.817 236.338 272.649 237.176 276.695 238.688C280.742 240.209 284.184 242.1 286.544 243.641C287.724 244.411 288.66 245.074 289.274 245.572C289.878 246.059 290.21 246.342 290.19 246.371Z" fill="#263238"/>
<path d="M395.613 123.347C395.633 123.347 395.613 123.62 395.555 124.136C395.487 124.702 395.409 125.453 395.301 126.399C395.048 128.359 394.697 131.196 394.102 134.687C393.507 138.168 392.688 142.312 391.372 146.817C390.017 151.292 388.144 156.148 385.239 160.741C383.737 163.159 381.962 165.304 380.159 167.254L379.964 167.469L379.788 167.225C377.175 163.724 373.84 161.16 370.535 159.551C368.897 158.703 367.219 158.186 365.659 157.757C364.08 157.406 362.588 157.172 361.223 157.162C358.493 157.094 356.318 157.562 354.904 158.049C353.49 158.547 352.74 158.917 352.72 158.869C352.71 158.859 352.896 158.761 353.256 158.586C353.617 158.43 354.124 158.118 354.856 157.884C356.269 157.338 358.463 156.811 361.242 156.84C362.627 156.831 364.148 157.045 365.757 157.386C367.346 157.806 369.053 158.322 370.73 159.161C374.103 160.77 377.506 163.364 380.198 166.932L379.817 166.903C381.592 164.972 383.347 162.857 384.829 160.468C387.696 155.934 389.568 151.117 390.943 146.68C392.279 142.214 393.127 138.1 393.771 134.628C394.414 131.157 394.814 128.329 395.126 126.379C395.272 125.443 395.389 124.692 395.477 124.127C395.535 123.61 395.594 123.347 395.613 123.347Z" fill="#263238"/>
<path d="M396.444 123.961L387.054 111.509L376.845 111.831L343.673 129.353L396.444 123.961Z" fill="#F26522"/>
<path d="M352.702 158.868C352.702 158.888 352.517 158.878 352.166 158.859C351.815 158.829 351.298 158.761 350.635 158.605C349.318 158.322 347.476 157.581 345.399 156.362C344.365 155.738 343.205 155.163 341.84 154.89C340.484 154.597 338.963 154.558 337.442 154.88C334.4 155.495 331.348 157.874 330.08 161.286L329.544 162.72L329.583 161.199C329.593 160.818 329.602 160.419 329.612 160.009C329.729 152.335 329.739 145.364 330.051 140.332C330.187 137.817 330.392 135.779 330.597 134.384C330.685 133.682 330.792 133.146 330.87 132.785C330.948 132.424 330.997 132.229 331.007 132.239C331.055 132.249 330.919 133.019 330.782 134.414C330.636 135.808 330.49 137.846 330.392 140.352C330.168 145.383 330.217 152.335 330.1 160.029C330.09 160.438 330.08 160.848 330.07 161.228L329.583 161.13C330.929 157.542 334.127 155.075 337.325 154.451C340.553 153.778 343.575 154.734 345.555 156.08C347.602 157.328 349.377 158.098 350.664 158.439C351.971 158.781 352.712 158.82 352.702 158.868Z" fill="#263238"/>
<path d="M387.053 51.2106V125.969C387.053 130.24 385.541 134.374 382.791 137.641C378.569 142.653 373.489 146.865 367.785 150.073L352.711 158.566L340.239 147.431C336.573 144.154 334.399 139.533 334.204 134.618C333.989 129.168 333.989 123.688 333.989 123.688C333.989 123.688 312.859 122.167 310.87 101.329C309.934 91.52 309.642 71.4238 309.593 52.8975C309.534 31.7677 325.74 14.1481 346.792 12.4027L347.387 12.354C369.18 11.8177 387.121 29.3982 387.053 51.2106Z" fill="#FFBE9D"/>
<path d="M333.911 123.385C333.911 123.385 347.182 123.366 360.472 113.401C360.472 113.401 355.285 128.943 334.311 128.787L333.911 123.385Z" fill="#EB996E"/>
<path d="M316.595 66.8997C316.673 68.4793 318.068 69.7177 319.715 69.6689C321.363 69.6202 322.641 68.3038 322.563 66.7242C322.485 65.1446 321.09 63.9063 319.442 63.955C317.795 64.0038 316.517 65.3201 316.595 66.8997Z" fill="#263238"/>
<path d="M314.897 61.3028C315.297 61.6635 317.413 59.8012 320.621 59.5476C323.819 59.2454 326.306 60.6982 326.627 60.2789C326.783 60.0937 326.354 59.4209 325.262 58.7578C324.19 58.0948 322.415 57.5195 320.416 57.695C318.417 57.8705 316.799 58.7481 315.902 59.5769C314.975 60.4155 314.702 61.1468 314.897 61.3028Z" fill="#263238"/>
<path d="M347.094 65.6126C347.172 67.1922 348.567 68.4306 350.215 68.3818C351.863 68.3331 353.14 67.0167 353.062 65.4371C352.984 63.8575 351.59 62.6191 349.942 62.6679C348.304 62.7166 347.026 64.033 347.094 65.6126Z" fill="#263238"/>
<path d="M346.46 59.294C346.86 59.6548 348.985 57.7924 352.183 57.5389C355.382 57.2366 357.868 58.6894 358.19 58.2702C358.346 58.0849 357.917 57.4121 356.825 56.749C355.752 56.086 353.978 55.5107 351.979 55.6862C349.98 55.8617 348.361 56.7393 347.464 57.5681C346.538 58.4067 346.265 59.1282 346.46 59.294Z" fill="#263238"/>
<path d="M336.788 84.0317C336.788 83.8464 334.77 83.6709 331.503 83.5247C330.674 83.5052 329.884 83.4077 329.709 82.8616C329.465 82.2863 329.738 81.3795 330.05 80.3947C330.655 78.347 331.289 76.2116 331.952 73.9592C334.575 64.8033 336.408 57.305 336.037 57.2075C335.667 57.11 333.239 64.4425 330.606 73.5985C329.982 75.8509 329.377 78.0058 328.802 80.0632C328.568 81.0187 328.12 82.1206 328.646 83.3102C328.919 83.905 329.553 84.295 330.089 84.3925C330.625 84.5095 331.084 84.4802 331.493 84.4705C334.779 84.3632 336.798 84.217 336.788 84.0317Z" fill="#263238"/>
<path d="M346.41 85.4645C345.883 85.4742 346.166 88.9552 343.397 91.6757C340.628 94.3961 336.884 94.3181 336.903 94.8056C336.874 95.0299 337.781 95.4102 339.35 95.3224C340.891 95.2444 343.095 94.5716 344.791 92.9042C346.478 91.2369 347.093 89.1502 347.093 87.7169C347.102 86.2543 346.644 85.4254 346.41 85.4645Z" fill="#263238"/>
<path d="M344.587 46.7936C344.977 47.6419 348.146 46.9594 351.939 47.1056C355.742 47.1739 358.862 48.0222 359.301 47.1934C359.496 46.8034 358.892 46.0233 357.605 45.2823C356.318 44.5412 354.309 43.8977 352.037 43.8392C349.755 43.7807 347.717 44.3072 346.401 44.98C345.055 45.6528 344.422 46.3938 344.587 46.7936Z" fill="#263238"/>
<path d="M315.307 51.922C315.931 52.6045 318.077 51.6684 320.729 51.4052C323.371 51.0541 325.672 51.4929 326.131 50.6836C326.326 50.2936 325.916 49.5915 324.873 48.987C323.849 48.3825 322.182 47.9534 320.358 48.1582C318.535 48.363 317.014 49.1625 316.146 49.9816C315.278 50.8201 315.034 51.5904 315.307 51.922Z" fill="#263238"/>
<path d="M362.512 30.2075C362.551 30.2368 362.59 30.2661 362.629 30.2856C366.168 32.6355 368.674 36.253 369.61 40.397C369.639 40.5433 369.678 40.6798 369.708 40.8163C371.014 46.696 371.365 52.7609 372.73 58.6309C374.096 64.5008 373.842 68.9861 379.722 70.3122C383.427 71.1508 386.586 69.0836 387.912 66.9872C388.419 66.1779 388.439 65.1541 388.429 64.1985C388.351 49.7382 391.257 44.1218 389.989 29.1057C389.648 25.0202 387.405 21.3344 383.876 19.2282C380.541 17.2391 376.514 15.211 373.15 17.1611C369.786 19.1112 365.807 26.0245 363.321 29.018" fill="#263238"/>
<path d="M380.805 61.2343C381.146 61.049 394.787 55.8129 395.509 70.1074C396.23 84.4117 381.731 82.1886 381.682 81.779C381.633 81.3695 380.805 61.2343 380.805 61.2343Z" fill="#FFBE9D"/>
<path d="M385.777 76.1334C385.835 76.0847 386.03 76.2992 386.469 76.4649C386.888 76.6307 387.6 76.7282 388.331 76.4064C389.813 75.7726 390.964 73.3155 390.905 70.7315C390.876 69.4249 390.545 68.2061 390.028 67.2018C389.54 66.1779 388.829 65.4856 388.058 65.3881C387.288 65.2516 386.781 65.7294 386.625 66.1487C386.449 66.5582 386.557 66.841 386.488 66.8702C386.449 66.9092 386.167 66.646 386.254 66.0512C386.303 65.7684 386.449 65.4174 386.771 65.1249C387.103 64.8323 387.6 64.6568 388.127 64.6958C389.228 64.7153 390.281 65.6807 390.837 66.7825C391.461 67.8843 391.871 69.2592 391.9 70.7218C391.959 73.608 390.613 76.3772 388.575 77.0792C387.58 77.3913 386.732 77.128 386.274 76.816C385.816 76.4747 385.728 76.1627 385.777 76.1334Z" fill="#EB996E"/>
<path d="M373.812 19.3259C376.854 13.3292 366.548 5.9284 359.332 4.30003C352.117 2.67167 343.127 6.85472 336.311 9.76043C332.011 11.5936 327.779 14.002 323.108 14.197C319.978 14.3238 316.907 13.4365 313.874 12.6369C310.842 11.8373 307.702 11.1158 304.601 11.5936C301.501 12.0616 298.429 13.9825 297.493 16.976C296.547 19.9597 298.576 23.782 301.696 23.9575C297.571 22.1146 292.091 25.4396 291.818 29.9444C291.545 34.459 296.577 38.408 300.896 37.0819C298.741 35.7168 295.845 38.5055 296.304 41.0212C296.762 43.5369 299.209 45.1848 301.627 46.0136C307.79 48.1295 314.654 46.7254 320.641 44.1414C326.628 41.5575 332.069 37.862 337.988 35.1318C343.907 32.4016 353.794 27.5652 360.102 29.2131C364.744 30.4319 368.332 35.5998 370.78 34.1957C373.149 32.8306 374.495 30.1297 374.758 27.4092C375.041 24.6985 374.426 21.9878 373.812 19.3259Z" fill="#263238"/>
<path d="M299.939 23.7039C300.056 23.6259 300.759 24.6985 302.436 26.2391C304.103 27.7505 306.872 29.6811 310.782 30.6854C314.624 31.68 319.743 31.68 324.336 29.0083C329.006 26.4341 332.799 21.744 337.236 17.2489C341.663 12.7246 347.035 9.19485 352.632 8.21978C358.19 7.22521 363.543 8.85358 366.664 11.8178C369.803 14.8113 370.691 18.4483 370.661 20.7689C370.652 21.9585 370.427 22.8556 370.262 23.4406C370.047 24.0257 369.911 24.3085 369.872 24.2987C369.735 24.2695 370.232 23.0409 370.115 20.7884C369.979 18.5945 368.984 15.2305 365.991 12.5588C363.036 9.92615 358.054 8.50255 352.866 9.50687C347.65 10.4917 342.56 13.8362 338.24 18.2533C333.882 22.6508 329.972 27.4677 324.97 30.1491C319.997 32.9476 314.507 32.8208 310.519 31.6507C306.443 30.4709 303.654 28.316 302.055 26.6389C301.256 25.7808 300.7 25.069 300.388 24.5425C300.056 24.0159 299.9 23.7332 299.939 23.7039Z" fill="#00476F"/>
<path d="M384.382 60.3079C384.333 60.3567 383.738 59.9666 383.105 58.8745C382.471 57.802 381.896 56.0078 381.964 53.7652C381.896 49.1433 385.552 43.878 385.542 37.4815C385.601 34.3223 384.792 31.3093 383.261 29.0959C381.74 26.8922 379.526 25.5564 377.586 24.9518C375.616 24.318 373.9 24.4545 372.769 24.6983C371.638 24.9713 371.043 25.2931 370.985 25.1858C370.946 25.1273 371.453 24.6398 372.613 24.1718C373.763 23.7427 375.655 23.421 377.859 23.9865C380.033 24.5228 382.529 25.8781 384.333 28.3353C386.118 30.773 387.024 34.0882 386.966 37.4912C386.956 40.8942 385.981 44.0632 384.957 46.7057C383.953 49.3676 383.114 51.737 382.968 53.8042C382.549 58.0652 384.587 60.2201 384.382 60.3079Z" fill="#00476F"/>
<path d="M381.145 81.3307L378.824 79.1758C377.976 78.3957 377.927 77.0696 378.707 76.231L387.424 66.8216C388.204 65.9733 389.53 65.9245 390.369 66.7046L392.69 68.8595C393.538 69.6396 393.587 70.9657 392.807 71.8042L384.089 81.2137C383.309 82.062 381.993 82.1107 381.145 81.3307Z" fill="#263238"/>
<path d="M473.065 192.479C473.065 192.479 473.094 192.674 473.123 193.045C473.153 193.435 473.192 193.99 473.25 194.722C473.357 196.214 473.513 198.407 473.708 201.264C474.098 206.998 474.654 215.374 475.376 225.982C476.078 236.611 476.926 249.472 477.901 264.166C478.145 267.842 478.389 271.626 478.652 275.526C478.798 277.466 478.866 279.455 478.964 281.464C479.042 282.468 478.964 283.482 478.935 284.506C478.876 285.52 478.925 286.554 478.759 287.578C478.632 288.602 478.506 289.635 478.379 290.678C478.155 291.702 477.94 292.736 477.716 293.769C477.423 294.783 477.072 295.798 476.751 296.821C476.302 297.796 475.932 298.82 475.405 299.766C473.367 303.559 470.169 307.108 465.742 308.571L465.723 308.581H465.684C437.241 308.571 404.703 308.571 370.292 308.561C360.025 308.551 349.913 308.551 340.046 308.542H339.714L339.802 308.22C340.728 304.924 341.645 301.658 342.552 298.42C343.01 296.802 343.458 295.193 343.907 293.584C344.365 291.975 344.823 290.396 345.038 288.777C345.526 285.55 345.194 282.234 344.199 279.202C343.692 277.69 342.961 276.257 341.918 275.087C340.904 273.917 339.49 273.03 338.027 272.805L336.028 272.493L338.027 272.328C350.625 271.265 362.677 270.26 374.056 269.305L373.949 269.344C376.221 267.706 378.99 266.809 381.71 266.955C384.421 267.082 387.005 267.95 389.228 269.344L389.072 269.315C400.081 267.228 410.29 265.297 419.611 263.532L419.475 263.766C419.085 262.577 418.997 261.358 418.948 260.178C418.909 258.998 418.948 257.828 419.046 256.687C419.231 254.406 419.553 252.222 419.972 250.106L419.992 250.213C417.544 245.64 415.292 241.457 413.225 237.596L413.205 237.566V237.537C412.727 226.294 412.562 217.431 412.64 211.386C412.669 208.363 412.786 206.042 412.952 204.482C413.03 203.702 413.108 203.117 413.215 202.727C413.303 202.337 413.351 202.142 413.351 202.142C413.351 202.142 413.322 202.347 413.254 202.737C413.166 203.127 413.098 203.712 413.03 204.492C412.893 206.052 412.805 208.363 412.796 211.386C412.766 217.431 412.971 226.285 413.488 237.518L413.468 237.459C415.555 241.311 417.808 245.484 420.274 250.047L420.304 250.096L420.294 250.154C419.884 252.251 419.563 254.435 419.387 256.697C419.299 257.828 419.26 258.979 419.299 260.149C419.348 261.309 419.446 262.509 419.816 263.64L419.884 263.835L419.68 263.874C410.358 265.658 400.149 267.618 389.15 269.724L389.072 269.744L388.994 269.695C386.859 268.359 384.314 267.501 381.701 267.394C379.078 267.257 376.416 268.115 374.222 269.705L374.173 269.744L374.115 269.753C362.736 270.719 350.684 271.743 338.086 272.815V272.337C339.773 272.601 341.206 273.546 342.298 274.775C343.39 276.013 344.151 277.505 344.677 279.056C345.701 282.176 346.033 285.55 345.545 288.865C345.331 290.522 344.853 292.141 344.404 293.74C343.956 295.349 343.507 296.958 343.049 298.577C342.142 301.814 341.225 305.08 340.309 308.376L340.065 308.054C349.943 308.054 360.044 308.064 370.312 308.064C404.722 308.093 437.25 308.113 465.703 308.132L465.654 308.142C467.731 307.498 469.623 306.211 471.183 304.729C472.743 303.208 474.04 301.463 475.034 299.571C475.551 298.635 475.922 297.631 476.361 296.675C476.682 295.661 477.024 294.666 477.316 293.662C477.54 292.638 477.755 291.624 477.979 290.61C478.106 289.586 478.233 288.563 478.359 287.548C478.525 286.534 478.476 285.511 478.535 284.506C478.564 283.492 478.642 282.488 478.564 281.493C478.476 279.494 478.408 277.525 478.272 275.575C478.028 271.674 477.784 267.891 477.55 264.215C476.614 249.521 475.805 236.65 475.132 226.021C474.469 215.403 473.952 207.027 473.591 201.294C473.426 198.437 473.289 196.243 473.201 194.751C473.162 194.02 473.133 193.454 473.114 193.074C473.065 192.664 473.065 192.479 473.065 192.479Z" fill="#263238"/>
<path d="M445.451 139.347C445.47 139.386 444.836 139.737 443.715 140.43C442.594 141.112 441.014 142.175 439.201 143.667C435.554 146.602 431.156 151.477 427.519 157.649C423.872 163.822 421.454 169.877 419.719 174.245C418.88 176.39 418.198 178.145 417.69 179.442C417.466 180.008 417.271 180.476 417.125 180.846C416.988 181.168 416.91 181.334 416.891 181.324C416.871 181.314 416.92 181.139 417.027 180.807C417.154 180.427 417.31 179.949 417.505 179.364C417.934 178.116 418.558 176.322 419.377 174.109C421.035 169.701 423.404 163.597 427.08 157.386C430.747 151.165 435.232 146.27 438.976 143.384C440.839 141.921 442.457 140.898 443.618 140.264C444.183 139.932 444.661 139.718 444.963 139.562C445.275 139.396 445.451 139.328 445.451 139.347Z" fill="#263238"/>
<g opacity="0.3">
<g opacity="0.3">
<path opacity="0.3" d="M407.286 176.576C403.142 185.585 401.465 195.824 401.836 205.74C402.206 215.657 403.396 225.593 402.421 235.46C401.446 245.328 398.023 255.41 390.652 262.05C389.764 262.85 388.809 263.62 388.273 264.693C387.746 265.756 387.785 267.228 388.731 267.959C389.569 268.613 390.749 268.457 391.793 268.281C398.852 267.053 405.98 266.185 413.039 264.956C414.551 264.693 419.641 263.698 419.641 263.698C419.641 263.698 418.968 259.827 419.212 257.897C419.436 256.132 420.128 250.125 420.128 250.125C419.923 249.199 419.251 248.497 418.773 247.619C414.131 239 412.922 232.613 412.922 232.613C410.514 227.679 409.432 222.736 408.32 218.123C405.229 205.35 405.317 192.762 407.286 176.576Z" fill="black"/>
</g>
</g>
<g opacity="0.3">
<g opacity="0.3">
<path opacity="0.3" d="M329.992 162.018C330.567 163.48 331.152 164.943 331.728 166.406C331.903 166.854 332.127 167.342 332.566 167.517C333.434 167.849 334.126 166.786 334.536 165.947C336.164 162.652 339.538 160.292 343.185 159.863C346.149 159.522 349.191 160.38 352.107 159.775C349.523 158.235 346.919 156.684 344.053 155.768C341.196 154.851 338.017 154.607 335.209 155.68C332.4 156.762 330.08 159.346 329.865 162.34" fill="black"/>
</g>
</g>
<g opacity="0.3">
<g opacity="0.3">
<path opacity="0.3" d="M354.096 158.322C357.557 158.381 361.058 158.449 364.422 159.249C367.786 160.048 371.072 161.667 373.266 164.348C375.625 167.225 376.503 170.988 377.459 174.586C377.644 175.279 377.975 176.098 378.687 176.176C379.116 176.225 379.506 175.961 379.857 175.708C385.688 171.427 389.54 164.855 391.656 157.942C393.762 151.019 394.249 143.716 394.366 136.49C391.578 141.473 390.368 147.148 388.526 152.55C386.683 157.952 383.972 163.393 379.194 166.513C379.35 165.294 378.872 164.056 378.102 163.09C377.342 162.125 376.318 161.404 375.265 160.77C368.839 156.889 360.736 155.894 353.56 158.118" fill="black"/>
</g>
</g>
<path d="M338.943 273.176H327.009C327.009 273.176 300.067 263.445 294.529 264.371C289.537 265.21 271.274 277.339 267.695 279.748C267.295 280.011 266.993 280.401 266.827 280.85C266.096 282.829 267.061 285.023 269.002 285.823L269.382 285.979L269.216 286.525C269.011 287.197 268.904 287.958 268.943 288.709C269.08 291.273 272.522 292.053 273.838 289.85L273.146 291.068C272.863 291.566 272.736 292.131 272.765 292.707L272.824 293.818C272.892 295.057 273.711 296.119 274.891 296.5C276.012 296.86 277.241 296.548 278.031 295.681C280.351 293.136 285.354 288.026 288.737 287.461C291.75 286.963 296.762 286.895 299.794 286.905C301.335 286.915 302.71 287.86 303.275 289.294C301.267 289.44 287.265 296.734 282.311 299.347C280.78 300.156 279.63 301.609 279.435 303.335C279.25 304.885 280.039 306.514 283.101 305.792C289.683 304.251 301.53 298.811 301.53 298.811C301.53 298.811 307.644 297.065 311.602 299.854C317.17 303.783 319.725 305.227 324.503 303.637C329.28 302.048 332.81 299.776 332.81 299.776L342.229 298.84C342.21 298.85 351.122 276.589 338.943 273.176Z" fill="#FFBE9D"/>
<path d="M303.363 277.729C303.343 277.837 301.451 277.222 298.302 277.027C295.172 276.813 290.726 277.173 286.299 279.065C281.872 280.957 278.527 283.911 276.519 286.32C274.481 288.728 273.613 290.512 273.525 290.464C273.496 290.454 273.691 289.996 274.12 289.216C274.549 288.436 275.241 287.343 276.236 286.095C278.196 283.599 281.57 280.528 286.094 278.607C290.609 276.676 295.162 276.374 298.321 276.676C299.911 276.822 301.178 277.076 302.046 277.31C302.914 277.525 303.372 277.7 303.363 277.729Z" fill="#EB996E"/>
<path d="M300.516 271.187C300.486 271.313 298.566 270.368 295.25 270.27C291.955 270.124 287.323 271.118 282.994 273.741C278.664 276.374 275.427 279.709 273.116 282.098C272.024 283.258 271.117 284.223 270.406 284.974C269.762 285.657 269.401 286.017 269.372 285.998C269.343 285.978 269.664 285.569 270.259 284.847C270.854 284.126 271.732 283.102 272.853 281.854C275.096 279.397 278.323 275.984 282.73 273.312C287.147 270.641 291.906 269.685 295.26 269.919C296.947 270.017 298.283 270.329 299.17 270.631C299.619 270.758 299.95 270.933 300.174 271.021C300.408 271.109 300.516 271.167 300.516 271.187Z" fill="#EB996E"/>
<path d="M456.06 0.321777C434.033 0.321777 416.189 18.1753 416.189 40.1924C416.189 48.6756 418.842 56.5249 423.356 62.9896L418.569 77.8594L433.224 72.8671C439.698 77.4011 447.567 80.0631 456.07 80.0631C478.097 80.0631 495.941 62.2095 495.941 40.1924C495.941 18.1753 478.087 0.321777 456.06 0.321777Z" fill="white"/>
<path d="M445.551 39.8903C445.492 41.7917 443.913 43.2835 442.011 43.225C440.11 43.1665 438.618 41.5869 438.676 39.6855C438.735 37.7841 440.315 36.2923 442.216 36.3508C444.117 36.3995 445.609 37.9889 445.551 39.8903Z" fill="#263238"/>
<path d="M459.308 40.2997C459.249 42.2011 457.669 43.693 455.768 43.6345C453.867 43.576 452.375 41.9963 452.433 40.095C452.492 38.1936 454.071 36.7017 455.973 36.7602C457.874 36.8187 459.366 38.3983 459.308 40.2997Z" fill="#263238"/>
<path d="M473.086 38.9932C473.983 40.6704 473.359 42.7473 471.682 43.6541C470.005 44.5512 467.928 43.9271 467.021 42.25C466.124 40.5729 466.748 38.496 468.425 37.5891C470.092 36.6921 472.179 37.3259 473.086 38.9932Z" fill="#263238"/>
<path d="M457.289 0.0487536C457.289 0.0292521 457.523 0.0390029 457.981 0.0585043C458.488 0.0877564 459.161 0.126759 460.019 0.175513C460.467 0.214516 460.975 0.224266 461.521 0.292521C462.067 0.390028 462.671 0.487536 463.315 0.604544C463.968 0.721553 464.66 0.838561 465.411 0.975071C466.142 1.17984 466.922 1.39435 467.742 1.62837C471.018 2.57419 474.977 4.14405 478.984 6.93276C482.992 9.68246 487.126 13.5535 490.422 18.7604C493.649 23.9672 496.067 30.4612 496.535 37.6963C496.545 39.5001 496.711 41.343 496.477 43.2054C496.379 44.1317 496.37 45.0775 496.214 46.0136C496.048 46.9497 495.872 47.8857 495.697 48.8413C494.819 52.5758 493.581 56.3981 491.533 59.9279C489.534 63.4674 486.989 66.8216 483.908 69.7761C480.778 72.6721 477.151 75.1585 473.134 77.0306C469.136 78.9223 464.719 80.1801 460.165 80.5896C459.034 80.7749 457.884 80.7457 456.733 80.7749C455.582 80.8139 454.422 80.8237 453.262 80.7359C450.951 80.5701 448.63 80.2094 446.348 79.6536C441.385 78.4445 436.754 76.2701 432.707 73.4229L433.127 73.4814C428.28 75.256 423.522 77.0014 418.881 78.7077L418.032 79.0198L418.296 78.1617C419.875 73.0426 421.406 68.06 422.888 63.2334L422.947 63.6039C419.154 58.2313 416.814 52.1663 415.955 46.1794C415.526 43.1859 415.39 40.2119 415.673 37.355C415.78 35.9216 415.887 34.5078 416.199 33.1329C416.326 32.4406 416.453 31.7581 416.58 31.0853C416.726 30.4125 416.95 29.7592 417.135 29.1059C420.178 18.5946 426.935 10.9696 433.526 6.67924C436.832 4.49508 440.069 2.96422 443.023 2.02815C443.755 1.79413 444.467 1.56011 445.149 1.33585C445.851 1.17984 446.524 1.03358 447.168 0.887315C447.811 0.750805 448.425 0.614295 449.01 0.487536C449.595 0.390028 450.171 0.351026 450.697 0.282771C451.77 0.175513 452.706 0.0195014 453.525 0.00975071C454.334 0.00975071 455.017 0 455.592 0C456.119 0 456.528 0.00975071 456.86 0.00975071C457.143 0.0292521 457.289 0.0390028 457.289 0.0487536C457.289 0.0585043 457.143 0.0780057 456.86 0.0975071C456.538 0.117009 456.119 0.13651 455.602 0.156011C455.027 0.175513 454.344 0.204765 453.545 0.234017C452.725 0.27302 451.799 0.448533 450.736 0.575292C446.573 1.20909 440.313 2.6717 433.829 7.12777C427.354 11.4181 420.763 18.9749 417.837 29.3106C417.662 29.9542 417.447 30.5977 417.301 31.251C417.184 31.9141 417.057 32.5869 416.94 33.2694C416.638 34.615 416.541 35.9996 416.443 37.4135C416.18 40.2217 416.316 43.1371 416.755 46.0721C417.623 51.9323 419.934 57.8705 423.659 63.1164L423.776 63.2919L423.717 63.4966C422.245 68.3232 420.724 73.3059 419.154 78.4347L418.578 77.8887C423.22 76.1823 427.978 74.4272 432.814 72.6428L433.039 72.5648L433.234 72.7013C437.193 75.4803 441.727 77.6059 446.573 78.7858C448.806 79.3318 451.068 79.6828 453.33 79.8486C454.461 79.9363 455.592 79.9266 456.723 79.8876C457.854 79.8583 458.976 79.8876 460.087 79.7023C464.543 79.3123 468.853 78.0837 472.773 76.2408C476.702 74.4077 480.252 71.9895 483.323 69.1618C486.336 66.2756 488.832 62.9993 490.812 59.5378C492.83 56.0861 494.049 52.3516 494.926 48.6853C495.102 47.759 495.268 46.8327 495.443 45.9161C495.609 44.9995 495.619 44.0732 495.716 43.1567C495.95 41.3333 495.794 39.5196 495.794 37.7548C495.365 30.6562 493.025 24.2598 489.885 19.1114C486.677 13.9728 482.641 10.1115 478.711 7.36179C474.782 4.56333 470.891 2.96422 467.664 1.96964C466.854 1.72588 466.084 1.50161 465.362 1.27734C464.621 1.13108 463.939 0.994573 463.295 0.877564C462.652 0.750805 462.067 0.633796 461.521 0.526538C460.975 0.448533 460.477 0.419281 460.029 0.370527C459.171 0.282771 458.498 0.214516 458.001 0.165762C457.523 0.0975071 457.289 0.068255 457.289 0.0487536Z" fill="#263238"/>
<path d="M544.169 304.924C541.663 305.275 539.215 306.494 537.694 308.522C536.173 310.55 535.695 313.407 536.788 315.689C537.88 317.97 540.629 319.433 543.077 318.76C543.155 320.554 544.783 322.144 546.577 322.173C548.371 322.202 550.058 320.671 550.195 318.877C551.355 320.203 553.393 320.671 555.021 319.998C556.65 319.316 557.742 317.532 557.615 315.776C557.537 314.665 557.02 313.621 556.884 312.51C556.737 311.301 557.049 310.072 557.02 308.853C556.991 307.635 556.464 306.269 555.304 305.879" fill="#D1D1D1"/>
<path d="M494.147 311.525C497.92 309.107 502.24 307.674 506.579 306.552C509.738 305.733 513.112 305.08 516.212 306.094C519.128 307.05 521.488 309.546 522.297 312.51C522.599 313.641 522.677 314.899 522.131 315.933C521.4 317.307 519.791 317.941 518.28 318.312C517.129 318.595 515.647 318.682 515.003 317.688C514.243 318.653 513.063 319.277 511.844 319.375C510.616 319.472 509.358 319.033 508.461 318.195C507.632 320.106 505.272 321.208 503.273 320.613C501.274 320.028 499.89 317.834 500.221 315.777C499.295 317.112 497.676 317.971 496.058 317.834C494.439 317.698 492.938 316.469 492.626 314.87C492.314 313.271 493.357 311.496 494.927 311.116" fill="#D1D1D1"/>
<path d="M457.669 310.901C456.674 306.689 458.313 302.291 461.823 299.756C465.733 296.938 468.483 293.662 473.582 290.63C477.209 288.465 483.294 286.193 486.034 285.286C496.028 281.971 502.786 281.123 506.891 278.978C511.395 276.618 517.392 272.922 517.392 272.922L568.418 276.871C568.418 276.871 574.551 314.558 565.258 318.234C565.258 318.234 522.033 318.692 518.63 317.181C514.945 315.552 458.693 315.582 458.859 315.952L457.669 310.901Z" fill="#D1D1D1"/>
<path d="M485.273 303.705C474.362 305.343 468.901 305.841 457.873 305.909C454.646 305.928 451.379 305.88 448.22 306.533C446.299 306.933 444.369 307.615 442.955 308.98C441.541 310.346 440.771 312.5 441.463 314.334C442.155 316.167 444.583 317.278 446.251 316.235C446.533 317.766 447.811 319.063 449.342 319.355C450.872 319.648 452.54 318.926 453.369 317.6C454.071 318.507 455.358 318.77 456.489 318.585C457.62 318.4 458.653 317.844 459.687 317.356C464.143 315.279 468.862 315.786 473.777 315.825C482.357 315.884 492.069 315.796 488.491 315.825" fill="#D1D1D1"/>
<path d="M488.502 315.835C488.502 315.815 488.746 315.806 489.223 315.786H489.243H489.253H489.262C489.272 315.962 489.253 315.835 489.262 315.874H489.214H489.116C489.048 315.874 488.98 315.874 488.902 315.884C488.755 315.884 488.59 315.893 488.424 315.893C488.073 315.903 487.663 315.913 487.215 315.923C485.352 315.942 482.71 315.971 479.414 316.011C477.747 316.011 475.914 316.02 473.934 316.02C471.945 316.02 469.82 315.923 467.567 315.981C465.324 316.05 462.936 316.303 460.644 317.22C459.503 317.658 458.411 318.36 457.095 318.721C456.442 318.897 455.73 318.965 455.037 318.828C454.345 318.702 453.653 318.36 453.185 317.766L453.585 317.746C452.727 319.101 451.03 319.901 449.382 319.628C447.734 319.345 446.33 317.99 446.008 316.293L446.389 316.459C445.16 317.229 443.454 316.908 442.352 315.962C441.621 315.377 441.143 314.489 441.016 313.583C440.87 312.676 441.026 311.749 441.357 310.921C442.011 309.244 443.454 308.025 444.965 307.313C446.506 306.591 448.134 306.25 449.714 306.026C451.303 305.802 452.873 305.733 454.394 305.694C460.478 305.665 465.929 305.626 470.512 305.294C475.085 304.982 478.771 304.495 481.316 304.173C482.564 304.017 483.539 303.89 484.251 303.793C484.563 303.754 484.816 303.725 485.011 303.705C485.187 303.686 485.274 303.686 485.274 303.695C485.274 303.705 485.187 303.725 485.021 303.764C484.826 303.803 484.572 303.842 484.26 303.9C483.558 304.017 482.573 304.173 481.335 304.368C478.79 304.748 475.114 305.285 470.522 305.646C465.939 306.036 460.449 306.104 454.394 306.162C452.883 306.201 451.332 306.279 449.772 306.504C448.222 306.728 446.632 307.069 445.17 307.761C443.717 308.444 442.41 309.565 441.815 311.106C441.182 312.588 441.338 314.519 442.664 315.562C443.639 316.391 445.111 316.654 446.106 316.02L446.418 315.816L446.486 316.186C446.749 317.658 448.017 318.877 449.45 319.121C450.884 319.365 452.415 318.663 453.156 317.473L453.341 317.181L453.555 317.454C454.326 318.419 455.788 318.575 456.958 318.243C458.177 317.922 459.269 317.229 460.459 316.781C462.828 315.854 465.276 315.611 467.538 315.552C469.81 315.503 471.935 315.63 473.915 315.64C475.894 315.66 477.727 315.679 479.395 315.689C482.69 315.708 485.333 315.728 487.195 315.747C487.644 315.757 488.044 315.757 488.404 315.757C488.58 315.757 488.736 315.767 488.882 315.767C488.95 315.767 489.028 315.767 489.097 315.767H489.194H489.243C489.253 315.806 489.233 315.679 489.243 315.855H489.233H489.214C488.746 315.864 488.502 315.854 488.502 315.835Z" fill="#455A64"/>
<path d="M556.758 313.836C556.758 313.836 557.021 314.041 557.333 314.587C557.626 315.123 557.947 316.04 557.801 317.22C557.733 317.805 557.548 318.448 557.157 319.053C556.777 319.667 556.182 320.223 555.412 320.554C553.91 321.227 551.658 321.061 550.225 319.443L550.585 319.374C550.117 320.779 548.733 321.968 547.046 322.085C545.369 322.202 543.604 321.091 543.019 319.345L543.311 319.511C540.611 320.184 537.588 318.36 536.447 315.63C535.56 313.563 535.94 311.242 536.866 309.438C537.812 307.615 539.294 306.172 540.942 305.275C542.59 304.358 544.335 303.9 545.973 303.686C547.612 303.471 549.162 303.5 550.556 303.608C553.345 303.851 555.549 304.339 557.079 304.622C557.801 304.768 558.386 304.875 558.835 304.963C559.234 305.041 559.449 305.09 559.439 305.109C559.439 305.129 559.225 305.109 558.815 305.06C558.406 305.012 557.811 304.924 557.04 304.807C555.5 304.583 553.286 304.154 550.527 303.959C547.807 303.793 544.355 303.91 541.176 305.675C539.606 306.542 538.202 307.917 537.315 309.653C536.437 311.359 536.096 313.544 536.915 315.425C537.968 317.961 540.786 319.628 543.194 319.023L543.419 318.965L543.487 319.179C543.984 320.701 545.564 321.715 547.026 321.617C548.499 321.529 549.776 320.467 550.195 319.228L550.312 318.887L550.546 319.16C551.804 320.623 553.891 320.827 555.285 320.232C556.748 319.647 557.431 318.253 557.577 317.171C557.752 316.059 557.479 315.172 557.235 314.636C556.962 314.099 556.728 313.865 556.758 313.836Z" fill="#455A64"/>
<path d="M564.392 304.066C564.333 304.124 563.807 303.608 562.783 303.052C561.778 302.496 560.218 301.95 558.463 302.038C556.708 302.126 555.216 302.828 554.27 303.481C553.315 304.134 552.837 304.71 552.779 304.651C552.73 304.622 553.11 303.959 554.056 303.188C554.982 302.428 556.552 301.619 558.434 301.521C560.316 301.424 561.954 302.067 562.958 302.73C563.992 303.413 564.431 304.037 564.392 304.066Z" fill="#455A64"/>
<path d="M493.962 317.493C493.952 317.502 493.826 317.424 493.582 317.239C493.367 317.034 493.036 316.732 492.743 316.235C492.148 315.279 491.651 313.553 492.197 311.545C492.743 309.536 494.469 307.586 496.78 306.24C499.091 304.846 501.948 304.076 504.707 302.857C510.256 300.351 514.127 296.148 516.203 292.794C517.266 291.117 517.959 289.654 518.378 288.621C518.807 287.587 519.012 287.012 519.051 287.022C519.07 287.031 519.031 287.178 518.953 287.46C518.865 287.743 518.768 288.172 518.563 288.689C518.193 289.752 517.539 291.244 516.506 292.979C514.487 296.421 510.577 300.76 504.912 303.315C502.094 304.563 499.266 305.314 497.014 306.64C494.752 307.917 493.094 309.76 492.538 311.642C491.973 313.524 492.382 315.191 492.909 316.137C493.455 317.103 494.001 317.444 493.962 317.493Z" fill="#455A64"/>
<path d="M514.281 317.19C514.33 317.142 514.584 317.639 515.383 318.058C516.154 318.478 517.567 318.77 519.03 318.107C520.493 317.483 521.624 315.621 521.556 313.505C521.546 312.452 521.234 311.36 520.658 310.365C520.073 309.38 519.245 308.483 518.231 307.791C516.202 306.387 513.804 305.811 511.678 305.821C509.523 305.811 507.602 306.25 506.023 306.689C504.443 307.137 503.185 307.586 502.308 307.879C501.43 308.181 500.943 308.337 500.933 308.298C500.923 308.269 501.381 308.044 502.239 307.693C503.097 307.342 504.336 306.835 505.925 306.348C507.505 305.86 509.455 305.373 511.678 305.363C513.891 305.334 516.388 305.909 518.523 307.391C519.586 308.122 520.473 309.078 521.087 310.131C521.692 311.194 522.024 312.383 522.024 313.514C522.072 315.786 520.805 317.805 519.167 318.448C517.548 319.111 516.056 318.731 515.276 318.234C514.867 317.99 514.613 317.707 514.457 317.522C514.34 317.307 514.272 317.2 514.281 317.19Z" fill="#455A64"/>
<path d="M508.597 317.892C508.646 317.863 509.065 318.536 510.226 318.946C510.781 319.15 511.513 319.365 512.254 319.297C512.995 319.209 513.785 318.731 514.223 317.98C514.662 317.229 514.633 316.323 514.418 315.572C514.204 314.821 513.814 314.207 513.453 313.709C512.702 312.744 512.147 312.188 512.215 312.13C512.254 312.091 512.888 312.539 513.736 313.485C514.145 313.963 514.613 314.597 514.867 315.435C515.13 316.245 515.189 317.307 514.662 318.224C514.136 319.131 513.2 319.667 512.312 319.745C511.405 319.804 510.674 319.521 510.089 319.267C509.504 318.994 509.085 318.672 508.851 318.39C508.607 318.107 508.568 317.902 508.597 317.892Z" fill="#455A64"/>
<path d="M500.406 316.069C500.445 316.079 500.377 316.352 500.367 316.839C500.358 317.317 500.465 318.039 500.904 318.789C501.323 319.53 502.123 320.272 503.234 320.496C504.316 320.74 505.652 320.506 506.666 319.696C507.681 318.887 508.217 317.658 508.334 316.547C508.461 315.416 508.158 314.392 507.768 313.622C506.949 312.061 505.925 311.476 505.994 311.408C506.013 311.379 506.267 311.496 506.676 311.818C507.076 312.13 507.622 312.656 508.09 313.456C508.548 314.246 508.919 315.357 508.802 316.605C508.695 317.834 508.119 319.189 506.978 320.106C505.828 321.013 504.346 321.256 503.127 320.964C501.879 320.681 501.001 319.804 500.592 318.975C500.163 318.136 500.104 317.346 500.172 316.839C500.241 316.313 500.387 316.059 500.406 316.069Z" fill="#455A64"/>
<path d="M520.67 281.698C520.67 281.698 531.464 293.584 544.842 292.073C558.22 290.561 568.516 277.593 568.516 277.593C570.574 274.326 569.726 270.943 569.082 268.447C568.438 265.95 567.21 263.562 567.2 260.978C567.19 258.774 568.068 256.678 568.702 254.571C570.125 249.852 570.34 244.86 570.554 239.936C570.642 237.82 570.535 235.304 568.75 234.173C567.639 233.471 566.176 233.568 564.977 234.105C563.778 234.641 562.793 235.548 561.847 236.455C557.82 240.326 554.027 244.45 550.517 248.799C545.095 244.947 536.953 245.61 532.224 250.271C526.491 247.863 524.609 239.838 518.739 237.79C517.462 237.342 515.941 237.264 514.858 238.073C513.435 239.146 513.357 241.213 513.405 242.997C513.649 251.022 513.942 259.281 517.208 266.614C515.785 271.547 516.994 277.174 520.338 281.084" fill="#D1D1D1"/>
<path d="M540.248 283.385C540.95 282.351 542.032 281.581 543.232 281.239C544.431 280.898 545.757 280.986 546.898 281.493C547.181 281.62 547.464 281.776 547.649 282.029C547.834 282.283 547.893 282.643 547.717 282.907C547.512 282.585 546.996 282.624 546.723 282.897C546.459 283.17 546.391 283.58 546.381 283.96C546.371 284.34 546.391 284.73 546.254 285.091C546.089 285.52 545.699 285.842 545.25 285.929C544.802 286.017 544.314 285.851 544.012 285.52C543.739 285.227 543.612 284.828 543.437 284.467C543.261 284.106 542.978 283.755 542.578 283.687C542.266 283.628 541.954 283.765 541.652 283.882C541.36 283.999 541.018 284.096 540.726 283.97C540.433 283.843 540.297 283.385 540.56 283.199" fill="#455A64"/>
<path d="M545.242 284.867C545.32 284.877 545.301 285.296 545.457 285.93C545.603 286.554 545.993 287.402 546.734 288.036C547.475 288.66 548.382 288.904 549.016 288.943C549.669 288.991 550.079 288.894 550.098 288.972C550.118 289.03 549.728 289.255 549.006 289.294C548.304 289.342 547.261 289.138 546.393 288.416C545.535 287.685 545.164 286.69 545.096 285.988C545.028 285.276 545.184 284.857 545.242 284.867Z" fill="#455A64"/>
<path d="M545.319 284.233C545.368 284.214 545.661 284.682 545.69 285.549C545.729 286.398 545.417 287.665 544.422 288.601C543.418 289.528 542.131 289.752 541.292 289.654C540.425 289.567 539.976 289.245 540.005 289.196C540.035 289.118 540.522 289.303 541.312 289.294C542.092 289.294 543.213 289.03 544.081 288.221C544.939 287.412 545.28 286.3 545.339 285.53C545.388 284.75 545.232 284.262 545.319 284.233Z" fill="#455A64"/>
<path d="M565.971 288.699C565.903 288.855 562.919 287.236 558.844 286.759C554.768 286.232 551.482 287.08 551.452 286.915C551.433 286.856 552.233 286.573 553.578 286.349C554.924 286.125 556.825 286.008 558.902 286.261C560.979 286.515 562.793 287.09 564.041 287.636C565.299 288.182 566.001 288.65 565.971 288.699Z" fill="#455A64"/>
<path d="M572.183 286.056C572.163 286.134 570.964 285.832 569.004 285.491C567.044 285.14 564.314 284.789 561.281 284.74C558.249 284.691 555.509 284.955 553.539 285.237C551.57 285.52 550.361 285.774 550.341 285.696C550.331 285.666 550.624 285.559 551.17 285.413C551.706 285.257 552.496 285.072 553.481 284.886C555.45 284.506 558.22 284.194 561.291 284.243C564.363 284.301 567.122 284.711 569.072 285.15C570.047 285.374 570.837 285.579 571.364 285.754C571.9 285.91 572.192 286.027 572.183 286.056Z" fill="#455A64"/>
<path d="M575.467 279.143C575.458 279.221 573.995 279.153 571.626 279.153C569.256 279.163 565.97 279.26 562.431 279.913C558.881 280.557 555.8 281.707 553.694 282.77C551.578 283.833 550.398 284.72 550.35 284.642C550.33 284.613 550.603 284.369 551.139 283.97C551.676 283.57 552.485 283.034 553.528 282.458C555.615 281.288 558.735 280.069 562.333 279.416C565.931 278.753 569.246 278.714 571.626 278.792C572.815 278.831 573.781 278.909 574.444 278.977C575.107 279.055 575.467 279.114 575.467 279.143Z" fill="#455A64"/>
<path d="M519.558 294.637C519.538 294.608 519.743 294.413 520.123 294.071C520.504 293.73 521.099 293.282 521.859 292.755C523.37 291.712 525.623 290.473 528.295 289.567C530.966 288.669 533.511 288.289 535.344 288.192C536.261 288.143 537.012 288.143 537.519 288.182C538.035 288.211 538.318 288.25 538.309 288.279C538.309 288.367 537.177 288.357 535.364 288.543C533.56 288.728 531.074 289.157 528.451 290.035C525.828 290.922 523.595 292.092 522.044 293.038C520.513 294.013 519.616 294.705 519.558 294.637Z" fill="#455A64"/>
<path d="M518.739 289.225C518.729 289.196 518.992 289.06 519.48 288.835C519.967 288.611 520.689 288.328 521.595 288.026C523.409 287.412 525.983 286.759 528.899 286.437C531.814 286.125 534.476 286.213 536.378 286.427C537.333 286.534 538.094 286.651 538.62 286.768C539.147 286.876 539.43 286.954 539.42 286.993C539.41 287.071 538.24 286.915 536.348 286.788C534.457 286.671 531.834 286.632 528.957 286.944C526.081 287.256 523.526 287.841 521.703 288.367C519.879 288.894 518.768 289.303 518.739 289.225Z" fill="#455A64"/>
<path d="M511.944 286.944C511.934 286.915 512.295 286.749 512.958 286.486C513.621 286.213 514.605 285.881 515.834 285.52C518.291 284.799 521.792 284.107 525.702 283.97C529.622 283.843 533.161 284.282 535.657 284.828C536.905 285.101 537.91 285.364 538.592 285.589C539.275 285.803 539.645 285.94 539.636 285.979C539.606 286.066 538.095 285.628 535.589 285.179C533.093 284.731 529.592 284.341 525.721 284.477C521.85 284.614 518.389 285.247 515.922 285.871C513.465 286.486 511.973 287.022 511.944 286.944Z" fill="#455A64"/>
<path d="M537.937 273.585C537.976 273.624 537.489 274.17 536.436 274.648C535.402 275.136 533.744 275.487 532.009 275.038C530.273 274.58 528.996 273.468 528.323 272.542C527.641 271.606 527.475 270.894 527.533 270.884C527.611 270.845 527.894 271.489 528.606 272.318C529.308 273.146 530.527 274.121 532.136 274.541C533.735 274.95 535.285 274.687 536.299 274.317C537.333 273.936 537.889 273.507 537.937 273.585Z" fill="#455A64"/>
<path d="M559.653 268.895C559.702 268.885 559.868 269.597 559.487 270.66C559.146 271.713 558.093 273.029 556.513 273.702C554.953 274.395 553.393 274.463 552.321 274.473C551.238 274.473 550.575 274.394 550.575 274.326C550.575 274.248 551.238 274.199 552.311 274.112C553.364 274.014 554.856 273.878 556.309 273.234C557.781 272.61 558.746 271.469 559.156 270.523C559.585 269.578 559.565 268.895 559.653 268.895Z" fill="#455A64"/>
<path d="M521.879 254.522C522.474 253.889 523.068 253.245 523.507 252.445C523.946 251.646 524.219 250.69 524.102 249.744C523.975 248.73 523.429 247.872 522.864 247.092C521.313 244.976 519.509 243.134 517.51 241.661C517.51 241.661 515.96 240.491 515.268 241.661C514.81 242.441 515.102 255.254 516.877 256.063C518.671 256.892 521.879 254.522 521.879 254.522Z" fill="#455A64"/>
<path d="M566.118 236.22C563.27 238.453 562.178 242.295 560.043 245.22C559.663 245.747 559.273 246.283 559.019 246.878C558.766 247.473 558.658 248.165 558.853 248.789C559.058 249.433 559.565 249.93 560.082 250.359C561.213 251.315 562.49 252.085 563.855 252.65C563.855 252.65 566.81 253.567 567.59 250.876C568.37 248.194 568.029 234.729 566.118 236.22Z" fill="#455A64"/>
<path d="M475.514 291.458C472.082 291.985 464.154 290.668 461.844 288.28C459.425 285.793 460.176 282.146 461.434 278.919C462.692 275.682 464.632 272.776 466.28 269.724C469.049 264.624 471.058 259.008 471.214 253.206C471.36 247.414 469.488 241.418 465.383 237.322C461.278 233.227 454.804 231.374 449.392 233.471C444.946 235.197 441.494 240.335 443.22 244.782C444.302 247.57 447.003 249.345 448.904 251.656C451.586 254.913 452.649 259.427 451.713 263.542C450.689 268.008 447.53 271.733 446.33 276.159C444.507 282.907 447.812 290.395 453.38 294.618C458.948 298.84 466.358 300.107 473.301 299.298" fill="#D1D1D1"/>
<path d="M547.64 289.118C547.64 289.118 548.059 291.731 547.162 292.794C546.762 293.272 546.207 293.652 545.583 293.721C544.666 293.818 543.779 293.194 543.32 292.394C542.862 291.595 542.745 290.639 542.696 289.723C542.696 289.723 545.017 288.884 545.348 287.529C545.358 287.529 546.285 288.982 547.64 289.118Z" fill="#F26522"/>
<path d="M559.458 290.181C559.477 290.2 559.224 290.522 558.707 291.039C558.19 291.556 557.381 292.267 556.289 293.018C554.134 294.52 550.702 296.119 546.645 296.441C542.589 296.763 538.942 295.739 536.573 294.598C535.383 294.032 534.467 293.467 533.872 293.038C533.277 292.609 532.975 292.336 532.985 292.306C533.043 292.219 534.33 293.233 536.719 294.266C539.079 295.31 542.648 296.246 546.597 295.934C550.546 295.612 553.919 294.12 556.084 292.716C558.278 291.312 559.39 290.103 559.458 290.181Z" fill="#455A64"/>
<path d="M545.533 307.742C545.572 307.82 544.86 308.181 543.973 309.068C543.095 309.936 542.081 311.428 541.789 313.3C541.496 315.172 542.003 316.898 542.579 318C543.154 319.111 543.729 319.677 543.661 319.735C543.632 319.774 542.949 319.296 542.266 318.175C541.584 317.073 540.979 315.24 541.291 313.222C541.613 311.203 542.744 309.643 543.729 308.805C544.724 307.947 545.513 307.693 545.533 307.742Z" fill="#455A64"/>
<path d="M555.031 308.873C555.031 308.97 554.231 308.892 553.129 309.4C552.047 309.887 550.701 311.077 550.107 312.822C549.522 314.577 549.746 316.323 550.038 317.502C550.331 318.702 550.653 319.404 550.584 319.443C550.536 319.472 550.087 318.819 549.697 317.6C549.307 316.41 549.005 314.567 549.629 312.666C550.272 310.755 551.784 309.517 552.993 309.078C554.221 308.61 555.05 308.834 555.031 308.873Z" fill="#455A64"/>
<path d="M528.596 302.564C528.655 302.603 528.362 303.149 527.787 303.968C527.212 304.778 526.344 305.87 525.183 306.874C524.013 307.878 522.775 308.541 521.858 308.922C520.932 309.302 520.328 309.439 520.308 309.38C520.24 309.214 522.6 308.424 524.862 306.484C527.095 304.524 528.45 302.447 528.596 302.564Z" fill="#455A64"/>
<path d="M516.808 273.273C516.818 273.283 516.622 273.439 516.252 273.702C515.881 273.975 515.316 274.346 514.585 274.814C513.112 275.74 510.899 276.979 508.071 278.285C505.234 279.582 501.782 280.947 497.862 282.234C493.942 283.521 489.593 284.721 485.089 286.213C480.594 287.695 476.381 289.362 472.783 291.322C469.185 293.272 466.192 295.476 463.949 297.611C461.706 299.746 460.166 301.745 459.23 303.198C458.284 304.651 457.865 305.519 457.816 305.499C457.796 305.49 457.894 305.275 458.099 304.856C458.284 304.437 458.615 303.842 459.064 303.091C459.961 301.599 461.463 299.532 463.705 297.348C465.938 295.164 468.942 292.902 472.559 290.912C476.177 288.913 480.408 287.227 484.923 285.735C489.437 284.243 493.806 283.044 497.706 281.795C501.616 280.538 505.068 279.221 507.905 277.963C510.743 276.706 512.966 275.526 514.468 274.658C515.218 274.219 515.794 273.878 516.184 273.634C516.583 273.371 516.798 273.254 516.808 273.273Z" fill="#455A64"/>
<path d="M521.958 281.942C521.919 281.981 521.266 281.376 520.437 280.216C519.608 279.056 518.643 277.31 517.989 275.214C517.346 273.117 517.17 271.128 517.209 269.705C517.248 268.271 517.443 267.413 517.502 267.423C517.677 267.423 517.19 270.972 518.487 275.067C519.715 279.182 522.104 281.854 521.958 281.942Z" fill="#455A64"/>
<path d="M170.482 314.977L138.129 233.763C135.262 226.782 140.401 219.118 147.948 219.118H248.741C253.285 219.118 257.331 222.014 258.794 226.324L286.583 308.239L319.043 308.395C321.676 308.405 323.812 312.266 323.812 314.899L288.085 314.49L170.482 314.977Z" fill="#00476F"/>
<path d="M171.272 237.888C168.98 237.8 166.689 238.386 164.758 239.634C164.124 240.043 163.5 240.531 162.983 241.106C161.258 243.046 158.176 246.82 159.405 252.709C160.634 258.599 164.436 259.408 166.201 259.603C167.976 259.798 180.359 256.278 180.359 256.278C180.359 256.278 184.854 252.456 183.255 247.454C181.88 243.163 177.902 238.132 171.272 237.888Z" fill="#F26522"/>
<path d="M165.362 257.848C165.362 257.848 165.811 260.997 167.39 261.797C168.97 262.596 171.915 262.45 174.167 261.885C176.42 261.319 179.784 260.022 180.174 258.277C180.573 256.531 180.232 254.406 179.979 254.172C179.725 253.938 176.283 251.997 171.671 253.411C167.059 254.815 165.362 257.848 165.362 257.848Z" fill="#F5F5F5"/>
<g opacity="0.4">
<g opacity="0.4">
<path opacity="0.4" d="M175.397 242.812C176.197 245.991 174.266 249.209 171.088 250.008C167.909 250.808 164.691 248.877 163.892 245.699C163.092 242.52 165.023 239.302 168.201 238.503C171.38 237.703 174.608 239.634 175.397 242.812Z" fill="white"/>
</g>
</g>
<g opacity="0.4">
<g opacity="0.4">
<g opacity="0.4">
<path opacity="0.4" d="M160.429 255.712C161.531 254.308 162.233 252.456 162.106 250.681C161.989 248.906 161.189 247.18 159.912 245.942C159.912 245.942 158.781 249.296 159.268 251.939C159.776 254.757 160.429 255.712 160.429 255.712Z" fill="white"/>
</g>
</g>
</g>
<g opacity="0.4">
<g opacity="0.4">
<g opacity="0.4">
<path opacity="0.4" d="M183.606 249.891C181.977 249.18 180.486 247.873 179.745 246.254C179.013 244.636 178.828 242.988 179.364 241.291C179.364 241.291 181.636 243.446 182.728 246.02C183.889 248.731 183.606 249.891 183.606 249.891Z" fill="white"/>
</g>
</g>
</g>
<path d="M217.071 270.407C217.071 274.024 214.136 276.949 210.528 276.949C206.911 276.949 203.985 274.014 203.985 270.407C203.985 266.789 206.92 263.864 210.528 263.864C214.136 263.854 217.071 266.789 217.071 270.407Z" fill="#F5F5F5"/>
<path d="M601.999 314.5C601.999 314.636 467.966 314.753 302.672 314.753C137.319 314.753 3.31543 314.636 3.31543 314.5C3.31543 314.363 137.319 314.246 302.672 314.246C467.966 314.246 601.999 314.353 601.999 314.5Z" fill="#263238"/>
<path d="M92.3973 281.015C82.8611 275.487 77.7615 262.626 77.3812 252.105C77.0009 241.584 81.379 230.594 90.0181 224.559C99.1058 218.201 112.055 218.318 121.406 224.296C130.747 230.282 136.217 241.574 135.798 252.66C135.378 263.747 129.333 274.336 120.392 280.908" fill="#F26522"/>
<path d="M107.618 282.03C107.559 282.03 107.501 281.171 107.442 279.621C107.394 277.895 107.335 275.692 107.257 273.059C107.111 267.52 106.896 259.866 106.526 251.412C106.155 242.958 105.697 235.314 105.356 229.785C105.2 227.152 105.063 224.949 104.966 223.233C104.888 221.682 104.868 220.824 104.927 220.815C104.985 220.805 105.122 221.663 105.307 223.203C105.492 224.744 105.726 226.977 105.98 229.736C106.487 235.265 107.043 242.91 107.413 251.373C107.784 259.837 107.901 267.501 107.881 273.049C107.871 275.828 107.842 278.071 107.784 279.621C107.735 281.171 107.676 282.03 107.618 282.03Z" fill="white"/>
<path d="M80.1979 249.716C80.1784 249.96 78.6573 250.038 76.8047 249.882C74.952 249.726 73.4602 249.404 73.4797 249.16C73.4992 248.916 75.0203 248.838 76.8729 248.994C78.7353 249.15 80.2174 249.472 80.1979 249.716Z" fill="#00476F"/>
<path d="M80.7261 240.277C80.6286 240.501 79.3122 240.14 77.8009 239.467C76.2797 238.795 75.1292 238.063 75.2364 237.839C75.3339 237.615 76.6503 237.976 78.1616 238.648C79.673 239.321 80.8236 240.043 80.7261 240.277Z" fill="#00476F"/>
<path d="M85.5807 233.266C85.4539 233.471 83.9816 232.779 82.441 231.501C80.9004 230.234 79.9448 228.918 80.1203 228.752C80.3056 228.576 81.5146 229.59 83.0065 230.819C84.4984 232.048 85.7172 233.052 85.5807 233.266Z" fill="#00476F"/>
<path d="M90.4657 226.646C90.2415 226.743 89.5297 225.641 88.8861 224.179C88.2426 222.716 87.9013 221.448 88.1255 221.351C88.3498 221.253 89.0616 222.355 89.7052 223.818C90.3585 225.281 90.69 226.548 90.4657 226.646Z" fill="#00476F"/>
<path d="M98.1419 221.955C97.9176 222.063 97.1571 220.883 96.6598 219.254C96.1528 217.626 96.1138 216.222 96.3478 216.183C96.5915 216.144 97.0206 217.421 97.5081 218.981C97.9859 220.551 98.3662 221.848 98.1419 221.955Z" fill="#00476F"/>
<path d="M110.934 216.661C111.168 216.739 111.021 217.743 110.612 218.903C110.202 220.064 109.686 220.931 109.452 220.844C109.218 220.766 109.364 219.761 109.773 218.601C110.183 217.45 110.7 216.583 110.934 216.661Z" fill="#00476F"/>
<path d="M120.422 220.736C120.587 220.922 119.983 221.75 119.066 222.599C118.15 223.447 117.272 223.993 117.097 223.808C116.931 223.623 117.535 222.794 118.452 221.945C119.378 221.097 120.256 220.561 120.422 220.736Z" fill="#00476F"/>
<path d="M128.778 226.129C128.914 226.333 128.173 227.074 127.12 227.796C126.067 228.508 125.102 228.927 124.965 228.722C124.829 228.518 125.57 227.777 126.623 227.055C127.676 226.343 128.641 225.924 128.778 226.129Z" fill="#00476F"/>
<path d="M134.705 234.173C134.803 234.397 133.633 235.119 132.092 235.772C130.551 236.425 129.225 236.776 129.128 236.552C129.03 236.328 130.2 235.606 131.741 234.953C133.282 234.3 134.608 233.949 134.705 234.173Z" fill="#00476F"/>
<path d="M137.046 242.949C137.075 243.192 135.886 243.543 134.384 243.729C132.882 243.914 131.644 243.865 131.615 243.621C131.586 243.378 132.775 243.027 134.277 242.841C135.778 242.656 137.017 242.705 137.046 242.949Z" fill="#00476F"/>
<path d="M138.255 253.752C138.157 253.977 136.89 253.645 135.427 253.011C133.964 252.378 132.853 251.675 132.95 251.451C133.048 251.227 134.315 251.558 135.788 252.192C137.25 252.826 138.362 253.518 138.255 253.752Z" fill="#00476F"/>
<path d="M137.193 263.016C137.115 263.24 135.516 262.86 133.838 261.758C132.161 260.666 131.167 259.35 131.342 259.184C131.527 259.008 132.746 259.974 134.326 261.007C135.906 262.051 137.28 262.782 137.193 263.016Z" fill="#00476F"/>
<path d="M132.365 271.45C132.219 271.645 130.942 270.894 129.713 269.568C128.485 268.252 127.831 266.926 128.036 266.789C128.241 266.643 129.197 267.696 130.376 268.963C131.546 270.231 132.521 271.255 132.365 271.45Z" fill="#00476F"/>
<path d="M86.5471 272.445C86.6641 272.659 85.3185 273.585 83.5536 274.502C81.7888 275.419 80.2579 275.994 80.1506 275.77C80.0336 275.555 81.3792 274.629 83.1441 273.712C84.909 272.796 86.4301 272.22 86.5471 272.445Z" fill="#00476F"/>
<path d="M82.3635 264.81C82.461 265.034 81.3884 265.746 79.9648 266.389C78.5412 267.033 77.2931 267.384 77.1956 267.15C77.0981 266.926 78.1707 266.214 79.5943 265.57C81.0179 264.927 82.2562 264.585 82.3635 264.81Z" fill="#00476F"/>
<path d="M79.2826 258.052C79.3216 258.296 77.9955 258.686 76.3282 258.92C74.6608 259.154 73.2859 259.154 73.2469 258.911C73.2079 258.667 74.534 258.277 76.2014 258.043C77.8688 257.809 79.2534 257.809 79.2826 258.052Z" fill="#00476F"/>
<path d="M89.3748 254.328C89.4528 254.562 88.1559 255.157 86.4398 255.352C84.7139 255.547 83.3293 255.254 83.3488 255.011C83.3683 254.757 84.7139 254.65 86.3423 254.465C87.9707 254.289 89.3065 254.084 89.3748 254.328Z" fill="#00476F"/>
<path d="M97.7598 245.991C97.8281 246.225 96.8042 246.741 95.4196 246.878C94.035 247.014 92.9235 246.702 92.9527 246.468C92.9722 246.215 94.0448 246.117 95.3319 245.991C96.619 245.864 97.6916 245.747 97.7598 245.991Z" fill="#00476F"/>
<path d="M99.3605 239.312C99.2825 239.546 98.1709 239.37 96.874 238.922C95.5869 238.473 94.6021 237.927 94.6801 237.693C94.7581 237.459 95.8697 237.635 97.1665 238.083C98.4634 238.522 99.4385 239.078 99.3605 239.312Z" fill="#00476F"/>
<path d="M102.432 232.554C102.256 232.73 101.496 232.223 100.95 231.277C100.404 230.331 100.345 229.415 100.579 229.356C100.823 229.288 101.232 229.99 101.72 230.829C102.208 231.667 102.617 232.379 102.432 232.554Z" fill="#00476F"/>
<path d="M98.7261 260.217C98.7846 260.461 97.8193 260.9 96.581 261.202C95.8594 261.378 95.2061 261.465 94.7771 261.465L94.6016 260.949C94.9233 260.89 95.1281 260.9 95.1769 260.997C95.2159 261.095 95.0891 261.251 94.8258 261.456L94.6503 260.939C95.0306 260.744 95.6546 260.52 96.3762 260.344C97.6145 260.022 98.6676 259.974 98.7261 260.217Z" fill="#00476F"/>
<path d="M100.46 272.055C100.548 272.289 99.3195 272.981 97.7204 273.615C96.1116 274.248 94.7465 274.57 94.649 274.336C94.5612 274.102 95.7898 273.41 97.3889 272.776C98.988 272.152 100.363 271.83 100.46 272.055Z" fill="#00476F"/>
<path d="M90.9835 266.799C91.0615 267.033 90.2424 267.521 89.1503 267.891C88.0583 268.262 87.1124 268.369 87.0344 268.135C86.9564 267.901 87.7755 267.413 88.8676 267.043C89.9596 266.672 90.9055 266.565 90.9835 266.799Z" fill="#00476F"/>
<path d="M91.7155 242.686C91.657 242.92 90.2333 242.783 88.5855 242.198C86.9376 241.613 85.7383 240.833 85.8455 240.609C85.9528 240.384 87.2789 240.794 88.8878 241.359C90.4771 241.925 91.774 242.442 91.7155 242.686Z" fill="#00476F"/>
<path d="M114.629 240.062C114.766 240.267 113.966 241.037 112.835 241.778C111.714 242.519 110.69 242.958 110.553 242.753C110.417 242.549 111.216 241.778 112.347 241.037C113.469 240.296 114.493 239.858 114.629 240.062Z" fill="#00476F"/>
<path d="M115.877 251.958C115.926 252.202 115.087 252.582 113.995 252.806C112.903 253.031 111.977 253.021 111.928 252.777C111.879 252.533 112.718 252.153 113.81 251.929C114.902 251.704 115.818 251.714 115.877 251.958Z" fill="#00476F"/>
<path d="M117.319 265.336C117.212 265.561 116.003 265.219 114.608 264.576C113.214 263.932 112.171 263.22 112.268 263.006C112.375 262.782 113.584 263.123 114.979 263.766C116.373 264.41 117.426 265.112 117.319 265.336Z" fill="#00476F"/>
<path d="M114.257 278.353C114.062 278.509 113.282 277.866 112.492 276.91C111.712 275.955 111.234 275.057 111.42 274.901C111.615 274.745 112.395 275.389 113.185 276.345C113.965 277.3 114.442 278.197 114.257 278.353Z" fill="#00476F"/>
<path d="M113.635 231.306C113.781 231.501 113.264 232.155 112.367 232.603C111.48 233.052 110.642 233.081 110.573 232.847C110.505 232.603 111.158 232.213 111.968 231.804C112.777 231.394 113.479 231.111 113.635 231.306Z" fill="#00476F"/>
<path d="M124.857 243.3C124.935 243.524 123.901 244.099 122.478 244.294C121.054 244.499 119.904 244.226 119.923 243.982C119.933 243.729 121.035 243.592 122.361 243.407C123.677 243.231 124.779 243.066 124.857 243.3Z" fill="#00476F"/>
<path d="M122.625 232.535C122.732 232.75 121.699 233.491 120.236 233.949C118.773 234.417 117.506 234.417 117.467 234.183C117.428 233.939 118.569 233.549 119.963 233.101C121.357 232.662 122.508 232.311 122.625 232.535Z" fill="#00476F"/>
<path d="M127.314 259.983C127.314 260.227 125.55 260.383 123.424 259.993C121.298 259.613 119.699 258.843 119.777 258.618C119.855 258.375 121.523 258.745 123.58 259.116C125.628 259.486 127.314 259.73 127.314 259.983Z" fill="#00476F"/>
<path d="M123.14 275.633C122.994 275.828 121.697 275.058 120.401 273.751C119.104 272.444 118.343 271.148 118.538 271.001C118.733 270.845 119.776 271.869 121.034 273.127C122.282 274.385 123.296 275.428 123.14 275.633Z" fill="#00476F"/>
<path d="M104.791 219.8C104.928 219.995 101.232 221.487 96.9616 225.992C92.6908 230.39 88.2932 238.171 87.2011 247.561C86.6843 252.231 87.1231 256.746 87.7861 260.773C88.4784 264.81 89.4048 268.388 90.2628 271.382C91.1209 274.365 91.9107 276.754 92.4372 278.422C92.9638 280.079 93.2465 281.006 93.188 281.025C93.1295 281.045 92.7395 280.167 92.1057 278.539C91.4719 276.91 90.5944 274.551 89.6583 271.567C88.7222 268.593 87.7276 264.995 86.9768 260.919C86.265 256.853 85.7775 252.261 86.3138 247.463C87.4254 237.859 92.0277 229.941 96.5033 225.563C98.7264 223.34 100.823 221.858 102.344 221C103.085 220.532 103.729 220.278 104.128 220.073C104.548 219.859 104.772 219.771 104.791 219.8Z" fill="white"/>
<path d="M116.969 281.591C116.774 281.493 118.977 278.1 120.986 271.996C123.053 265.961 124.76 257.029 123.385 247.317C122.741 242.481 121.337 237.995 119.582 234.163C117.758 230.38 115.399 227.289 113.098 225.125C110.718 223.018 108.369 221.809 106.74 221.107C105.092 220.415 104.098 220.259 104.107 220.181C104.117 220.152 104.361 220.161 104.839 220.239C105.307 220.327 105.999 220.483 106.867 220.785C108.573 221.4 111.001 222.541 113.517 224.657C115.964 226.841 118.402 229.932 120.333 233.812C122.176 237.713 123.619 242.266 124.282 247.2C125.686 257.087 123.833 266.156 121.591 272.211C121.083 273.751 120.44 275.077 119.952 276.267C119.377 277.418 118.899 278.422 118.47 279.212C117.554 280.772 117.027 281.62 116.969 281.591Z" fill="white"/>
<path d="M82.3643 279.475H131.615L131.917 289.333H82.3643V279.475Z" fill="#00476F"/>
<path d="M86.5469 284.408L89.3746 314.499H125.384L128.28 284.73L86.5469 284.408Z" fill="#00476F"/>
<path d="M131.916 289.45C131.916 289.694 120.82 289.899 107.15 289.899C93.4694 289.899 82.373 289.694 82.373 289.45C82.373 289.206 93.4596 289.001 107.15 289.001C120.83 289.001 131.916 289.206 131.916 289.45Z" fill="#455A64"/>
<path d="M126.915 298.616C126.964 298.645 126.632 299.337 125.862 300.497C125.092 301.648 123.863 303.267 122.04 305.012L121.815 305.227L121.591 304.993C119.222 302.506 115.965 299.454 111.938 296.539L112.484 296.519C111.109 297.728 109.676 298.986 108.203 300.273C106.458 301.794 104.761 303.276 103.143 304.68L102.86 304.924L102.577 304.69C99.5057 302.116 96.717 299.766 94.3573 297.777L94.8351 297.728C93.1385 299.805 91.7051 301.541 90.5838 302.916C89.56 304.134 88.9652 304.788 88.9164 304.739C88.8677 304.7 89.3552 303.969 90.2913 302.682C91.3541 301.258 92.7094 299.454 94.3086 297.309L94.5133 297.036L94.7863 297.26C97.185 299.21 100.022 301.502 103.133 304.027L102.577 304.037C104.186 302.623 105.873 301.141 107.618 299.61C109.091 298.323 110.534 297.075 111.909 295.866L112.172 295.632L112.455 295.837C116.511 298.82 119.748 301.97 122.059 304.563L121.611 304.544C125.257 301.229 126.769 298.508 126.915 298.616Z" fill="#455A64"/>
</svg>
